%TF.GenerationSoftware,KiCad,Pcbnew,6.0.9-8da3e8f707~116~ubuntu20.04.1*%
%TF.CreationDate,2023-04-01T10:59:08+02:00*%
%TF.ProjectId,minikey,6d696e69-6b65-4792-9e6b-696361645f70,rev?*%
%TF.SameCoordinates,Original*%
%TF.FileFunction,Legend,Bot*%
%TF.FilePolarity,Positive*%
%FSLAX46Y46*%
G04 Gerber Fmt 4.6, Leading zero omitted, Abs format (unit mm)*
G04 Created by KiCad (PCBNEW 6.0.9-8da3e8f707~116~ubuntu20.04.1) date 2023-04-01 10:59:08*
%MOMM*%
%LPD*%
G01*
G04 APERTURE LIST*
%ADD10C,0.150000*%
%ADD11C,0.120000*%
G04 APERTURE END LIST*
D10*
%TO.C,U7*%
X130221904Y-70062380D02*
X130221904Y-70871904D01*
X130174285Y-70967142D01*
X130126666Y-71014761D01*
X130031428Y-71062380D01*
X129840952Y-71062380D01*
X129745714Y-71014761D01*
X129698095Y-70967142D01*
X129650476Y-70871904D01*
X129650476Y-70062380D01*
X129269523Y-70062380D02*
X128602857Y-70062380D01*
X129031428Y-71062380D01*
%TO.C,U8*%
X187421904Y-70332380D02*
X187421904Y-71141904D01*
X187374285Y-71237142D01*
X187326666Y-71284761D01*
X187231428Y-71332380D01*
X187040952Y-71332380D01*
X186945714Y-71284761D01*
X186898095Y-71237142D01*
X186850476Y-71141904D01*
X186850476Y-70332380D01*
X186231428Y-70760952D02*
X186326666Y-70713333D01*
X186374285Y-70665714D01*
X186421904Y-70570476D01*
X186421904Y-70522857D01*
X186374285Y-70427619D01*
X186326666Y-70380000D01*
X186231428Y-70332380D01*
X186040952Y-70332380D01*
X185945714Y-70380000D01*
X185898095Y-70427619D01*
X185850476Y-70522857D01*
X185850476Y-70570476D01*
X185898095Y-70665714D01*
X185945714Y-70713333D01*
X186040952Y-70760952D01*
X186231428Y-70760952D01*
X186326666Y-70808571D01*
X186374285Y-70856190D01*
X186421904Y-70951428D01*
X186421904Y-71141904D01*
X186374285Y-71237142D01*
X186326666Y-71284761D01*
X186231428Y-71332380D01*
X186040952Y-71332380D01*
X185945714Y-71284761D01*
X185898095Y-71237142D01*
X185850476Y-71141904D01*
X185850476Y-70951428D01*
X185898095Y-70856190D01*
X185945714Y-70808571D01*
X186040952Y-70760952D01*
D11*
%TO.C,U7*%
X130159458Y-72576308D02*
X130875744Y-72576308D01*
X135883850Y-87041608D02*
X133141158Y-87041608D01*
X135883850Y-72576308D02*
X135883850Y-77829056D01*
X133141156Y-72576308D02*
X135883850Y-72576308D01*
X123133050Y-72576308D02*
X125875743Y-72576308D01*
X130875742Y-87041608D02*
X130641158Y-87041608D01*
X125875742Y-87041608D02*
X123133050Y-87041608D01*
X123133050Y-87041608D02*
X123133050Y-81288536D01*
X128375742Y-87041608D02*
X128141158Y-87041608D01*
X135883850Y-81288536D02*
X135883850Y-87041608D01*
X128141156Y-72576308D02*
X130159458Y-72576308D01*
X123133050Y-77829056D02*
X123133050Y-72576308D01*
%TO.C,U8*%
X185455742Y-87051608D02*
X185221158Y-87051608D01*
X180213050Y-72586308D02*
X182955743Y-72586308D01*
X182955742Y-87051608D02*
X180213050Y-87051608D01*
X190221156Y-72586308D02*
X192963850Y-72586308D01*
X187239458Y-72586308D02*
X187955744Y-72586308D01*
X185221156Y-72586308D02*
X187239458Y-72586308D01*
X187955742Y-87051608D02*
X187721158Y-87051608D01*
X180213050Y-87051608D02*
X180213050Y-81298536D01*
X192963850Y-87051608D02*
X190221158Y-87051608D01*
X180213050Y-77839056D02*
X180213050Y-72586308D01*
X192963850Y-81298536D02*
X192963850Y-87051608D01*
X192963850Y-72586308D02*
X192963850Y-77839056D01*
%TD*%
M02*
