M48
; DRILL file {KiCad 6.0.9-8da3e8f707~116~ubuntu20.04.1} date Sat 01 Apr 2023 10:59:06 AM CEST
; FORMAT={-:-/ absolute / metric / decimal}
; #@! TF.CreationDate,2023-04-01T10:59:06+02:00
; #@! TF.GenerationSoftware,Kicad,Pcbnew,6.0.9-8da3e8f707~116~ubuntu20.04.1
; #@! TF.FileFunction,MixedPlating,1,4
FMAT,2
METRIC
; #@! TA.AperFunction,Plated,PTH,ViaDrill
T1C0.400
; #@! TA.AperFunction,Plated,PTH,ComponentDrill
T2C0.400
; #@! TA.AperFunction,Plated,PTH,ComponentDrill
T3C0.800
; #@! TA.AperFunction,Plated,PTH,ComponentDrill
T4C1.000
; #@! TA.AperFunction,Plated,PTH,ComponentDrill
T5C1.092
; #@! TA.AperFunction,Plated,PTH,ComponentDrill
T6C2.200
; #@! TA.AperFunction,Plated,PTH,ComponentDrill
T7C3.000
; #@! TA.AperFunction,NonPlated,NPTH,ComponentDrill
T8C0.750
; #@! TA.AperFunction,NonPlated,NPTH,ComponentDrill
T9C1.750
; #@! TA.AperFunction,NonPlated,NPTH,ComponentDrill
T10C3.988
%
G90
G05
T1
X118.36Y-67.77
X118.38Y-161.67
X127.0Y-71.05
X129.52Y-85.49
X137.83Y-83.88
X139.38Y-74.37
X139.85Y-88.85
X142.303Y-101.536
X142.303Y-103.251
X142.303Y-120.587
X142.303Y-122.301
X142.303Y-139.636
X142.303Y-141.351
X142.61Y-71.2
X146.1Y-76.79
X149.11Y-88.88
X149.36Y-91.48
X149.37Y-90.5
X150.32Y-72.94
X150.6Y-92.28
X150.63Y-86.811
X151.42Y-79.9
X151.43Y-79.08
X151.91Y-87.36
X152.36Y-83.65
X152.6Y-71.27
X152.73Y-87.36
X153.34Y-81.71
X153.71Y-87.9
X154.03Y-70.05
X154.87Y-70.07
X155.32Y-72.97
X155.76Y-91.93
X155.78Y-80.37
X155.93Y-85.04
X156.47Y-74.12
X157.1Y-81.69
X157.367Y-88.347
X157.428Y-80.527
X157.57Y-74.12
X158.11Y-82.66
X158.41Y-80.34
X159.12Y-81.64
X159.12Y-84.89
X159.14Y-83.7
X159.26Y-80.35
X160.017Y-87.473
X160.22Y-89.28
X160.3Y-80.45
X160.4Y-84.9
X160.42Y-73.08
X160.48Y-83.68
X161.353Y-101.536
X161.353Y-103.251
X161.353Y-120.587
X161.353Y-122.301
X161.353Y-139.636
X161.353Y-141.351
X161.416Y-70.22
X161.96Y-79.38
X162.27Y-70.23
X163.99Y-77.76
X164.0Y-76.61
X164.6Y-78.84
X164.61Y-80.03
X164.63Y-83.46
X166.03Y-84.91
X166.16Y-82.704
X166.4Y-88.67
X169.32Y-82.35
X171.33Y-75.06
X172.49Y-79.19
X173.24Y-77.7
X174.44Y-77.17
X174.59Y-74.38
X174.63Y-70.22
X175.58Y-88.66
X180.403Y-101.536
X180.403Y-103.251
X180.403Y-120.587
X180.403Y-122.301
X180.403Y-139.636
X180.403Y-141.351
X184.09Y-70.68
X186.58Y-88.22
X197.85Y-67.79
X197.86Y-161.68
T2
X116.71Y-64.72
X116.71Y-164.74
X117.193Y-63.553
X117.193Y-65.887
X117.193Y-163.573
X117.193Y-165.907
X118.36Y-63.07
X118.36Y-66.37
X118.36Y-163.09
X118.36Y-166.39
X119.527Y-63.553
X119.527Y-65.887
X119.527Y-163.573
X119.527Y-165.907
X120.01Y-64.72
X120.01Y-164.74
X196.2Y-64.72
X196.2Y-164.72
X196.683Y-63.553
X196.683Y-65.887
X196.683Y-163.553
X196.683Y-165.887
X197.85Y-63.07
X197.85Y-66.37
X197.85Y-163.07
X197.85Y-166.37
X199.017Y-63.553
X199.017Y-65.887
X199.017Y-163.553
X199.017Y-165.887
X199.5Y-64.72
X199.5Y-164.72
T4
X137.82Y-74.38
X137.82Y-76.92
X137.82Y-79.46
X137.82Y-82.0
T5
X127.008Y-72.559
X127.008Y-87.059
X129.508Y-87.059
X132.008Y-72.559
X132.008Y-87.059
X184.088Y-72.569
X184.088Y-87.069
X186.588Y-87.069
X189.088Y-72.569
X189.088Y-87.069
T6
X118.36Y-64.72
X118.36Y-164.74
X197.85Y-64.72
X197.85Y-164.72
T7
X127.0Y-93.98
X127.0Y-113.03
X127.0Y-132.08
X127.0Y-151.13
X133.35Y-96.52
X133.35Y-115.57
X133.35Y-134.62
X133.35Y-153.67
X146.05Y-93.98
X146.05Y-113.03
X146.05Y-132.08
X146.05Y-151.13
X152.4Y-96.52
X152.4Y-115.57
X152.4Y-134.62
X152.4Y-153.67
X165.1Y-93.98
X165.1Y-113.03
X165.1Y-132.08
X165.1Y-151.13
X171.45Y-96.52
X171.45Y-115.57
X171.45Y-134.62
X171.45Y-153.67
X184.15Y-93.98
X184.15Y-113.03
X184.15Y-132.08
X184.15Y-151.13
X190.5Y-96.52
X190.5Y-115.57
X190.5Y-134.62
X190.5Y-153.67
T8
X155.216Y-67.667
X161.016Y-67.667
T9
X124.46Y-99.06
X124.46Y-118.11
X124.46Y-137.16
X124.46Y-156.21
X134.62Y-99.06
X134.62Y-118.11
X134.62Y-137.16
X134.62Y-156.21
X143.51Y-99.06
X143.51Y-118.11
X143.51Y-137.16
X143.51Y-156.21
X153.67Y-99.06
X153.67Y-118.11
X153.67Y-137.16
X153.67Y-156.21
X162.56Y-99.06
X162.56Y-118.11
X162.56Y-137.16
X162.56Y-156.21
X172.72Y-99.06
X172.72Y-118.11
X172.72Y-137.16
X172.72Y-156.21
X181.61Y-99.06
X181.61Y-118.11
X181.61Y-137.16
X181.61Y-156.21
X191.77Y-99.06
X191.77Y-118.11
X191.77Y-137.16
X191.77Y-156.21
T10
X129.54Y-99.06
X129.54Y-118.11
X129.54Y-137.16
X129.54Y-156.21
X148.59Y-99.06
X148.59Y-118.11
X148.59Y-137.16
X148.59Y-156.21
X167.64Y-99.06
X167.64Y-118.11
X167.64Y-137.16
X167.64Y-156.21
X186.69Y-99.06
X186.69Y-118.11
X186.69Y-137.16
X186.69Y-156.21
T3
G00X153.791Y-64.267
M15
G01X153.791Y-63.667
M16
G05
G00X153.791Y-68.567
M15
G01X153.791Y-67.767
M16
G05
G00X162.441Y-64.267
M15
G01X162.441Y-63.667
M16
G05
G00X162.441Y-68.567
M15
G01X162.441Y-67.767
M16
G05
T0
M30
