%TF.GenerationSoftware,KiCad,Pcbnew,6.0.9-8da3e8f707~116~ubuntu20.04.1*%
%TF.CreationDate,2023-04-01T10:59:08+02:00*%
%TF.ProjectId,minikey,6d696e69-6b65-4792-9e6b-696361645f70,rev?*%
%TF.SameCoordinates,Original*%
%TF.FileFunction,Paste,Top*%
%TF.FilePolarity,Positive*%
%FSLAX46Y46*%
G04 Gerber Fmt 4.6, Leading zero omitted, Abs format (unit mm)*
G04 Created by KiCad (PCBNEW 6.0.9-8da3e8f707~116~ubuntu20.04.1) date 2023-04-01 10:59:08*
%MOMM*%
%LPD*%
G01*
G04 APERTURE LIST*
G04 Aperture macros list*
%AMRoundRect*
0 Rectangle with rounded corners*
0 $1 Rounding radius*
0 $2 $3 $4 $5 $6 $7 $8 $9 X,Y pos of 4 corners*
0 Add a 4 corners polygon primitive as box body*
4,1,4,$2,$3,$4,$5,$6,$7,$8,$9,$2,$3,0*
0 Add four circle primitives for the rounded corners*
1,1,$1+$1,$2,$3*
1,1,$1+$1,$4,$5*
1,1,$1+$1,$6,$7*
1,1,$1+$1,$8,$9*
0 Add four rect primitives between the rounded corners*
20,1,$1+$1,$2,$3,$4,$5,0*
20,1,$1+$1,$4,$5,$6,$7,0*
20,1,$1+$1,$6,$7,$8,$9,0*
20,1,$1+$1,$8,$9,$2,$3,0*%
G04 Aperture macros list end*
%ADD10C,0.010000*%
%ADD11RoundRect,0.218750X-0.218750X-0.381250X0.218750X-0.381250X0.218750X0.381250X-0.218750X0.381250X0*%
%ADD12R,1.200000X1.400000*%
%ADD13R,1.200000X0.900000*%
%ADD14RoundRect,0.135000X0.185000X-0.135000X0.185000X0.135000X-0.185000X0.135000X-0.185000X-0.135000X0*%
%ADD15RoundRect,0.135000X-0.135000X-0.185000X0.135000X-0.185000X0.135000X0.185000X-0.135000X0.185000X0*%
%ADD16RoundRect,0.140000X-0.140000X-0.170000X0.140000X-0.170000X0.140000X0.170000X-0.140000X0.170000X0*%
%ADD17R,0.300000X1.300000*%
%ADD18RoundRect,0.140000X0.170000X-0.140000X0.170000X0.140000X-0.170000X0.140000X-0.170000X-0.140000X0*%
%ADD19RoundRect,0.140000X-0.170000X0.140000X-0.170000X-0.140000X0.170000X-0.140000X0.170000X0.140000X0*%
%ADD20RoundRect,0.250000X-1.025000X-1.000000X1.025000X-1.000000X1.025000X1.000000X-1.025000X1.000000X0*%
%ADD21RoundRect,0.135000X-0.185000X0.135000X-0.185000X-0.135000X0.185000X-0.135000X0.185000X0.135000X0*%
%ADD22RoundRect,0.243750X-0.243750X-0.456250X0.243750X-0.456250X0.243750X0.456250X-0.243750X0.456250X0*%
%ADD23RoundRect,0.140000X0.140000X0.170000X-0.140000X0.170000X-0.140000X-0.170000X0.140000X-0.170000X0*%
%ADD24RoundRect,0.150000X-0.650000X-0.150000X0.650000X-0.150000X0.650000X0.150000X-0.650000X0.150000X0*%
%ADD25R,1.700000X1.000000*%
%ADD26R,0.900000X1.200000*%
%ADD27RoundRect,0.150000X0.150000X-0.587500X0.150000X0.587500X-0.150000X0.587500X-0.150000X-0.587500X0*%
%ADD28RoundRect,0.006000X-0.414000X-0.094000X0.414000X-0.094000X0.414000X0.094000X-0.414000X0.094000X0*%
%ADD29RoundRect,0.020000X-0.080000X-0.400000X0.080000X-0.400000X0.080000X0.400000X-0.080000X0.400000X0*%
G04 APERTURE END LIST*
%TO.C,U1*%
G36*
X159095000Y-83657000D02*
G01*
X157135000Y-83657000D01*
X157135000Y-81697000D01*
X159095000Y-81697000D01*
X159095000Y-83657000D01*
G37*
D10*
X159095000Y-83657000D02*
X157135000Y-83657000D01*
X157135000Y-81697000D01*
X159095000Y-81697000D01*
X159095000Y-83657000D01*
%TD*%
D11*
%TO.C,FB1*%
X171237500Y-72150000D03*
X173362500Y-72150000D03*
%TD*%
D12*
%TO.C,Y1*%
X152310000Y-90910000D03*
X152310000Y-88710000D03*
X150610000Y-88710000D03*
X150610000Y-90910000D03*
%TD*%
D13*
%TO.C,D1*%
X136969500Y-102424500D03*
X136969500Y-99124500D03*
%TD*%
%TO.C,D15*%
X194119500Y-140524500D03*
X194119500Y-137224500D03*
%TD*%
%TO.C,D6*%
X156019500Y-121474500D03*
X156019500Y-118174500D03*
%TD*%
D14*
%TO.C,R9*%
X159480000Y-71770000D03*
X159480000Y-70750000D03*
%TD*%
D15*
%TO.C,R7*%
X170562500Y-79200000D03*
X171582500Y-79200000D03*
%TD*%
D16*
%TO.C,C8*%
X162778500Y-78867000D03*
X163738500Y-78867000D03*
%TD*%
D13*
%TO.C,D16*%
X194119500Y-159574500D03*
X194119500Y-156274500D03*
%TD*%
D15*
%TO.C,R5*%
X143570000Y-71210000D03*
X144590000Y-71210000D03*
%TD*%
D17*
%TO.C,U6*%
X161466029Y-68935087D03*
X160665927Y-68935087D03*
X159365953Y-68935087D03*
X158365953Y-68935087D03*
X157866080Y-68935087D03*
X156866334Y-68935087D03*
X155565851Y-68935087D03*
X154766003Y-68935087D03*
X155065978Y-68935087D03*
X155866080Y-68935087D03*
X156365953Y-68935087D03*
X157365953Y-68935087D03*
X158866080Y-68935087D03*
X159866080Y-68935087D03*
X160365953Y-68935087D03*
X161166054Y-68935087D03*
%TD*%
D14*
%TO.C,R3*%
X158777500Y-76860000D03*
X158777500Y-75840000D03*
%TD*%
D18*
%TO.C,C17*%
X168420000Y-83320000D03*
X168420000Y-82360000D03*
%TD*%
D19*
%TO.C,C14*%
X153710000Y-88850000D03*
X153710000Y-89810000D03*
%TD*%
D20*
%TO.C,SW1*%
X136900000Y-96520000D03*
X123450000Y-93980000D03*
%TD*%
D21*
%TO.C,R4*%
X167230000Y-82320000D03*
X167230000Y-83340000D03*
%TD*%
D16*
%TO.C,C6*%
X162160000Y-77740000D03*
X163120000Y-77740000D03*
%TD*%
D13*
%TO.C,D11*%
X175069500Y-140524500D03*
X175069500Y-137224500D03*
%TD*%
D19*
%TO.C,C11*%
X158360000Y-88020000D03*
X158360000Y-88980000D03*
%TD*%
D13*
%TO.C,D4*%
X136969500Y-159574500D03*
X136969500Y-156274500D03*
%TD*%
%TO.C,D14*%
X194119500Y-121474500D03*
X194119500Y-118174500D03*
%TD*%
D16*
%TO.C,C9*%
X162778500Y-80010000D03*
X163738500Y-80010000D03*
%TD*%
D20*
%TO.C,SW10*%
X175000000Y-96520000D03*
X161550000Y-93980000D03*
%TD*%
%TO.C,SW17*%
X194050000Y-134620000D03*
X180600000Y-132080000D03*
%TD*%
D22*
%TO.C,D17*%
X167345000Y-79190000D03*
X169220000Y-79190000D03*
%TD*%
D18*
%TO.C,C3*%
X156487000Y-75960000D03*
X156487000Y-75000000D03*
%TD*%
D13*
%TO.C,D7*%
X156019500Y-140524500D03*
X156019500Y-137224500D03*
%TD*%
D18*
%TO.C,C12*%
X153352500Y-83637000D03*
X153352500Y-82677000D03*
%TD*%
D23*
%TO.C,C18*%
X153340000Y-79010000D03*
X152380000Y-79010000D03*
%TD*%
D13*
%TO.C,D12*%
X175069500Y-159574500D03*
X175069500Y-156274500D03*
%TD*%
D20*
%TO.C,SW9*%
X155950000Y-153670000D03*
X142500000Y-151130000D03*
%TD*%
D24*
%TO.C,U3*%
X144590000Y-72945000D03*
X144590000Y-74215000D03*
X144590000Y-75485000D03*
X144590000Y-76755000D03*
X151790000Y-76755000D03*
X151790000Y-75485000D03*
X151790000Y-74215000D03*
X151790000Y-72945000D03*
%TD*%
D25*
%TO.C,U4*%
X147790000Y-88650000D03*
X141190050Y-88651270D03*
X147790000Y-84950482D03*
X141190050Y-84950482D03*
%TD*%
D26*
%TO.C,D18*%
X165300000Y-72190000D03*
X162000000Y-72190000D03*
%TD*%
D20*
%TO.C,SW6*%
X155950000Y-96520000D03*
X142500000Y-93980000D03*
%TD*%
D27*
%TO.C,U2*%
X171340000Y-76275000D03*
X173240000Y-76275000D03*
X172290000Y-74400000D03*
%TD*%
D16*
%TO.C,C5*%
X162160000Y-76597000D03*
X163120000Y-76597000D03*
%TD*%
D20*
%TO.C,SW11*%
X175000000Y-115570000D03*
X161550000Y-113030000D03*
%TD*%
%TO.C,SW13*%
X175000000Y-153670000D03*
X161550000Y-151130000D03*
%TD*%
D14*
%TO.C,R6*%
X155940000Y-90920000D03*
X155940000Y-89900000D03*
%TD*%
D13*
%TO.C,D8*%
X156019500Y-159574500D03*
X156019500Y-156274500D03*
%TD*%
D18*
%TO.C,C7*%
X157570000Y-75960000D03*
X157570000Y-75000000D03*
%TD*%
D20*
%TO.C,SW3*%
X136900000Y-134620000D03*
X123450000Y-132080000D03*
%TD*%
D28*
%TO.C,U1*%
X154680000Y-80077000D03*
X154680000Y-80477000D03*
X154680000Y-80877000D03*
X154680000Y-81277000D03*
X154680000Y-81677000D03*
X154680000Y-82077000D03*
X154680000Y-82477000D03*
X154680000Y-82877000D03*
X154680000Y-83277000D03*
X154680000Y-83677000D03*
X154680000Y-84077000D03*
X154680000Y-84477000D03*
X154680000Y-84877000D03*
X154680000Y-85277000D03*
D29*
X155515000Y-86112000D03*
X155915000Y-86112000D03*
X156315000Y-86112000D03*
X156715000Y-86112000D03*
X157115000Y-86112000D03*
X157515000Y-86112000D03*
X157915000Y-86112000D03*
X158315000Y-86112000D03*
X158715000Y-86112000D03*
X159115000Y-86112000D03*
X159515000Y-86112000D03*
X159915000Y-86112000D03*
X160315000Y-86112000D03*
X160715000Y-86112000D03*
D28*
X161550000Y-85277000D03*
X161550000Y-84877000D03*
X161550000Y-84477000D03*
X161550000Y-84077000D03*
X161550000Y-83677000D03*
X161550000Y-83277000D03*
X161550000Y-82877000D03*
X161550000Y-82477000D03*
X161550000Y-82077000D03*
X161550000Y-81677000D03*
X161550000Y-81277000D03*
X161550000Y-80877000D03*
X161550000Y-80477000D03*
X161550000Y-80077000D03*
D29*
X160715000Y-79242000D03*
X160315000Y-79242000D03*
X159915000Y-79242000D03*
X159515000Y-79242000D03*
X159115000Y-79242000D03*
X158715000Y-79242000D03*
X158315000Y-79242000D03*
X157915000Y-79242000D03*
X157515000Y-79242000D03*
X157115000Y-79242000D03*
X156715000Y-79242000D03*
X156315000Y-79242000D03*
X155915000Y-79242000D03*
X155515000Y-79242000D03*
%TD*%
D13*
%TO.C,D13*%
X194119500Y-102424500D03*
X194119500Y-99124500D03*
%TD*%
D20*
%TO.C,SW12*%
X175000000Y-134620000D03*
X161550000Y-132080000D03*
%TD*%
%TO.C,SW7*%
X155950000Y-115570000D03*
X142500000Y-113030000D03*
%TD*%
D25*
%TO.C,U5*%
X167700025Y-84950876D03*
X174299975Y-84949606D03*
X167700025Y-88650394D03*
X174299975Y-88650394D03*
%TD*%
D13*
%TO.C,D5*%
X156019500Y-102424500D03*
X156019500Y-99124500D03*
%TD*%
D20*
%TO.C,SW18*%
X194050000Y-153670000D03*
X180600000Y-151130000D03*
%TD*%
%TO.C,SW2*%
X136900000Y-115570000D03*
X123450000Y-113030000D03*
%TD*%
D13*
%TO.C,D10*%
X175069500Y-121474500D03*
X175069500Y-118174500D03*
%TD*%
D20*
%TO.C,SW15*%
X194050000Y-96520000D03*
X180600000Y-93980000D03*
%TD*%
%TO.C,SW4*%
X136900000Y-153670000D03*
X123450000Y-151130000D03*
%TD*%
%TO.C,SW8*%
X155950000Y-134620000D03*
X142500000Y-132080000D03*
%TD*%
D13*
%TO.C,D9*%
X175069500Y-102424500D03*
X175069500Y-99124500D03*
%TD*%
D14*
%TO.C,R2*%
X159860000Y-76870000D03*
X159860000Y-75850000D03*
%TD*%
D18*
%TO.C,C15*%
X154780000Y-91880000D03*
X154780000Y-90920000D03*
%TD*%
D15*
%TO.C,R8*%
X153500000Y-71270000D03*
X154520000Y-71270000D03*
%TD*%
D16*
%TO.C,C16*%
X153490000Y-72970000D03*
X154450000Y-72970000D03*
%TD*%
D18*
%TO.C,C2*%
X174600000Y-76280000D03*
X174600000Y-75320000D03*
%TD*%
%TO.C,C1*%
X174630000Y-72140000D03*
X174630000Y-71180000D03*
%TD*%
D16*
%TO.C,C10*%
X162778500Y-83439000D03*
X163738500Y-83439000D03*
%TD*%
D23*
%TO.C,C13*%
X153350000Y-80090000D03*
X152390000Y-80090000D03*
%TD*%
D22*
%TO.C,F1*%
X167272500Y-72130000D03*
X169147500Y-72130000D03*
%TD*%
D20*
%TO.C,SW16*%
X194050000Y-115570000D03*
X180600000Y-113030000D03*
%TD*%
D14*
%TO.C,R1*%
X141190000Y-83250000D03*
X141190000Y-82230000D03*
%TD*%
D13*
%TO.C,D2*%
X136969500Y-121474500D03*
X136969500Y-118174500D03*
%TD*%
D19*
%TO.C,C4*%
X159312500Y-88302000D03*
X159312500Y-89262000D03*
%TD*%
D13*
%TO.C,D3*%
X136969500Y-140524500D03*
X136969500Y-137224500D03*
%TD*%
M02*
