%TF.GenerationSoftware,KiCad,Pcbnew,6.0.9-8da3e8f707~116~ubuntu20.04.1*%
%TF.CreationDate,2023-04-01T10:59:08+02:00*%
%TF.ProjectId,minikey,6d696e69-6b65-4792-9e6b-696361645f70,rev?*%
%TF.SameCoordinates,Original*%
%TF.FileFunction,Soldermask,Bot*%
%TF.FilePolarity,Negative*%
%FSLAX46Y46*%
G04 Gerber Fmt 4.6, Leading zero omitted, Abs format (unit mm)*
G04 Created by KiCad (PCBNEW 6.0.9-8da3e8f707~116~ubuntu20.04.1) date 2023-04-01 10:59:08*
%MOMM*%
%LPD*%
G01*
G04 APERTURE LIST*
%ADD10C,0.700000*%
%ADD11C,4.400000*%
%ADD12C,0.750013*%
%ADD13O,1.200000X2.000000*%
%ADD14O,1.200000X1.800000*%
%ADD15C,1.750000*%
%ADD16C,3.987800*%
%ADD17C,3.300000*%
%ADD18R,1.700000X1.700000*%
%ADD19O,1.700000X1.700000*%
%ADD20C,1.600200*%
G04 APERTURE END LIST*
D10*
%TO.C,H4*%
X197850000Y-166370000D03*
X196200000Y-164720000D03*
X197850000Y-163070000D03*
X199016726Y-165886726D03*
X196683274Y-165886726D03*
X199016726Y-163553274D03*
D11*
X197850000Y-164720000D03*
D10*
X196683274Y-163553274D03*
X199500000Y-164720000D03*
%TD*%
D12*
%TO.C,U6*%
X155216092Y-67666634D03*
X161015940Y-67666634D03*
D13*
X153790895Y-68166761D03*
D14*
X162441137Y-63966862D03*
X153790895Y-63966862D03*
D13*
X162441137Y-68166761D03*
%TD*%
D15*
%TO.C,SW1*%
X134620000Y-99060000D03*
X124460000Y-99060000D03*
D16*
X129540000Y-99060000D03*
D17*
X133350000Y-96520000D03*
X127000000Y-93980000D03*
%TD*%
D15*
%TO.C,SW10*%
X172720000Y-99060000D03*
X162560000Y-99060000D03*
D16*
X167640000Y-99060000D03*
D17*
X171450000Y-96520000D03*
X165100000Y-93980000D03*
%TD*%
D15*
%TO.C,SW17*%
X191770000Y-137160000D03*
D16*
X186690000Y-137160000D03*
D15*
X181610000Y-137160000D03*
D17*
X190500000Y-134620000D03*
X184150000Y-132080000D03*
%TD*%
D10*
%TO.C,H1*%
X118360000Y-63070000D03*
X117193274Y-65886726D03*
X120010000Y-64720000D03*
X119526726Y-65886726D03*
D11*
X118360000Y-64720000D03*
D10*
X118360000Y-66370000D03*
X116710000Y-64720000D03*
X117193274Y-63553274D03*
X119526726Y-63553274D03*
%TD*%
D15*
%TO.C,SW9*%
X143510000Y-156210000D03*
X153670000Y-156210000D03*
D16*
X148590000Y-156210000D03*
D17*
X152400000Y-153670000D03*
X146050000Y-151130000D03*
%TD*%
D15*
%TO.C,SW6*%
X143510000Y-99060000D03*
X153670000Y-99060000D03*
D16*
X148590000Y-99060000D03*
D17*
X152400000Y-96520000D03*
X146050000Y-93980000D03*
%TD*%
D15*
%TO.C,SW11*%
X172720000Y-118110000D03*
D16*
X167640000Y-118110000D03*
D15*
X162560000Y-118110000D03*
D17*
X171450000Y-115570000D03*
X165100000Y-113030000D03*
%TD*%
D15*
%TO.C,SW13*%
X172720000Y-156210000D03*
X162560000Y-156210000D03*
D16*
X167640000Y-156210000D03*
D17*
X171450000Y-153670000D03*
X165100000Y-151130000D03*
%TD*%
D16*
%TO.C,SW3*%
X129540000Y-137160000D03*
D15*
X124460000Y-137160000D03*
X134620000Y-137160000D03*
D17*
X133350000Y-134620000D03*
X127000000Y-132080000D03*
%TD*%
D16*
%TO.C,SW12*%
X167640000Y-137160000D03*
D15*
X172720000Y-137160000D03*
X162560000Y-137160000D03*
D17*
X171450000Y-134620000D03*
X165100000Y-132080000D03*
%TD*%
D15*
%TO.C,SW7*%
X143510000Y-118110000D03*
X153670000Y-118110000D03*
D16*
X148590000Y-118110000D03*
D17*
X152400000Y-115570000D03*
X146050000Y-113030000D03*
%TD*%
D15*
%TO.C,SW18*%
X191770000Y-156210000D03*
X181610000Y-156210000D03*
D16*
X186690000Y-156210000D03*
D17*
X190500000Y-153670000D03*
X184150000Y-151130000D03*
%TD*%
D15*
%TO.C,SW2*%
X134620000Y-118110000D03*
X124460000Y-118110000D03*
D16*
X129540000Y-118110000D03*
D17*
X133350000Y-115570000D03*
X127000000Y-113030000D03*
%TD*%
D16*
%TO.C,SW15*%
X186690000Y-99060000D03*
D15*
X191770000Y-99060000D03*
X181610000Y-99060000D03*
D17*
X190500000Y-96520000D03*
X184150000Y-93980000D03*
%TD*%
D15*
%TO.C,SW4*%
X124460000Y-156210000D03*
D16*
X129540000Y-156210000D03*
D15*
X134620000Y-156210000D03*
D17*
X133350000Y-153670000D03*
X127000000Y-151130000D03*
%TD*%
D16*
%TO.C,SW8*%
X148590000Y-137160000D03*
D15*
X143510000Y-137160000D03*
X153670000Y-137160000D03*
D17*
X152400000Y-134620000D03*
X146050000Y-132080000D03*
%TD*%
D10*
%TO.C,H2*%
X117193274Y-163573274D03*
X117193274Y-165906726D03*
X119526726Y-165906726D03*
X116710000Y-164740000D03*
D11*
X118360000Y-164740000D03*
D10*
X120010000Y-164740000D03*
X118360000Y-166390000D03*
X119526726Y-163573274D03*
X118360000Y-163090000D03*
%TD*%
%TO.C,H3*%
X199016726Y-65886726D03*
X199500000Y-64720000D03*
X196683274Y-65886726D03*
D11*
X197850000Y-64720000D03*
D10*
X197850000Y-66370000D03*
X196200000Y-64720000D03*
X197850000Y-63070000D03*
X199016726Y-63553274D03*
X196683274Y-63553274D03*
%TD*%
D15*
%TO.C,SW16*%
X191770000Y-118110000D03*
X181610000Y-118110000D03*
D16*
X186690000Y-118110000D03*
D17*
X190500000Y-115570000D03*
X184150000Y-113030000D03*
%TD*%
D18*
%TO.C,J1*%
X137820000Y-74380000D03*
D19*
X137820000Y-76920000D03*
X137820000Y-79460000D03*
X137820000Y-82000000D03*
%TD*%
D20*
%TO.C,U7*%
X132008450Y-72558908D03*
X127008450Y-72558908D03*
X132008450Y-87058908D03*
X129508450Y-87058908D03*
X127008450Y-87058908D03*
%TD*%
%TO.C,U8*%
X189088450Y-72568908D03*
X184088450Y-72568908D03*
X189088450Y-87068908D03*
X186588450Y-87068908D03*
X184088450Y-87068908D03*
%TD*%
M02*
