%TF.GenerationSoftware,KiCad,Pcbnew,6.0.9-8da3e8f707~116~ubuntu20.04.1*%
%TF.CreationDate,2023-04-01T10:59:08+02:00*%
%TF.ProjectId,minikey,6d696e69-6b65-4792-9e6b-696361645f70,rev?*%
%TF.SameCoordinates,Original*%
%TF.FileFunction,Legend,Top*%
%TF.FilePolarity,Positive*%
%FSLAX46Y46*%
G04 Gerber Fmt 4.6, Leading zero omitted, Abs format (unit mm)*
G04 Created by KiCad (PCBNEW 6.0.9-8da3e8f707~116~ubuntu20.04.1) date 2023-04-01 10:59:08*
%MOMM*%
%LPD*%
G01*
G04 APERTURE LIST*
%ADD10C,0.150000*%
%ADD11C,0.120000*%
%ADD12C,0.254001*%
%ADD13C,0.059995*%
%ADD14C,0.127000*%
%ADD15C,0.200000*%
G04 APERTURE END LIST*
D10*
X183590952Y-165002380D02*
X183590952Y-165716666D01*
X183543333Y-165859523D01*
X183448095Y-165954761D01*
X183305238Y-166002380D01*
X183210000Y-166002380D01*
X184543333Y-166002380D02*
X184067142Y-166002380D01*
X184067142Y-165002380D01*
X185448095Y-165907142D02*
X185400476Y-165954761D01*
X185257619Y-166002380D01*
X185162380Y-166002380D01*
X185019523Y-165954761D01*
X184924285Y-165859523D01*
X184876666Y-165764285D01*
X184829047Y-165573809D01*
X184829047Y-165430952D01*
X184876666Y-165240476D01*
X184924285Y-165145238D01*
X185019523Y-165050000D01*
X185162380Y-165002380D01*
X185257619Y-165002380D01*
X185400476Y-165050000D01*
X185448095Y-165097619D01*
X186162380Y-165002380D02*
X186162380Y-165716666D01*
X186114761Y-165859523D01*
X186019523Y-165954761D01*
X185876666Y-166002380D01*
X185781428Y-166002380D01*
X187114761Y-166002380D02*
X186638571Y-166002380D01*
X186638571Y-165002380D01*
X188019523Y-165907142D02*
X187971904Y-165954761D01*
X187829047Y-166002380D01*
X187733809Y-166002380D01*
X187590952Y-165954761D01*
X187495714Y-165859523D01*
X187448095Y-165764285D01*
X187400476Y-165573809D01*
X187400476Y-165430952D01*
X187448095Y-165240476D01*
X187495714Y-165145238D01*
X187590952Y-165050000D01*
X187733809Y-165002380D01*
X187829047Y-165002380D01*
X187971904Y-165050000D01*
X188019523Y-165097619D01*
X188733809Y-165002380D02*
X188733809Y-165716666D01*
X188686190Y-165859523D01*
X188590952Y-165954761D01*
X188448095Y-166002380D01*
X188352857Y-166002380D01*
X189686190Y-166002380D02*
X189210000Y-166002380D01*
X189210000Y-165002380D01*
X190590952Y-165907142D02*
X190543333Y-165954761D01*
X190400476Y-166002380D01*
X190305238Y-166002380D01*
X190162380Y-165954761D01*
X190067142Y-165859523D01*
X190019523Y-165764285D01*
X189971904Y-165573809D01*
X189971904Y-165430952D01*
X190019523Y-165240476D01*
X190067142Y-165145238D01*
X190162380Y-165050000D01*
X190305238Y-165002380D01*
X190400476Y-165002380D01*
X190543333Y-165050000D01*
X190590952Y-165097619D01*
X191305238Y-165002380D02*
X191305238Y-165716666D01*
X191257619Y-165859523D01*
X191162380Y-165954761D01*
X191019523Y-166002380D01*
X190924285Y-166002380D01*
X192257619Y-166002380D02*
X191781428Y-166002380D01*
X191781428Y-165002380D01*
X193162380Y-165907142D02*
X193114761Y-165954761D01*
X192971904Y-166002380D01*
X192876666Y-166002380D01*
X192733809Y-165954761D01*
X192638571Y-165859523D01*
X192590952Y-165764285D01*
X192543333Y-165573809D01*
X192543333Y-165430952D01*
X192590952Y-165240476D01*
X192638571Y-165145238D01*
X192733809Y-165050000D01*
X192876666Y-165002380D01*
X192971904Y-165002380D01*
X193114761Y-165050000D01*
X193162380Y-165097619D01*
X176440000Y-120180000D02*
X177540000Y-120180000D01*
X139280000Y-138620000D02*
X138880000Y-139220000D01*
X195470000Y-139220000D02*
X196570000Y-139220000D01*
X167630000Y-80980000D02*
X168020000Y-80980000D01*
X195630000Y-138620000D02*
X196420000Y-138620000D01*
X176640000Y-100520000D02*
X177430000Y-100520000D01*
X157550000Y-119580000D02*
X158340000Y-119580000D01*
X177035000Y-100520000D02*
X177030000Y-100020000D01*
X177380000Y-157670000D02*
X176980000Y-158270000D01*
X196500000Y-119570000D02*
X196100000Y-120170000D01*
X195770000Y-100510000D02*
X196560000Y-100510000D01*
X176980000Y-158260000D02*
X176590000Y-157670000D01*
X195440000Y-158270000D02*
X196540000Y-158270000D01*
X157880000Y-158660000D02*
X157880000Y-158270000D01*
X177030000Y-101110000D02*
X176640000Y-100520000D01*
X158340000Y-119580000D02*
X157940000Y-120180000D01*
X138330000Y-139220000D02*
X139430000Y-139220000D01*
X157985000Y-138620000D02*
X157980000Y-138120000D01*
X157560000Y-100530000D02*
X158350000Y-100530000D01*
X196165000Y-100510000D02*
X196160000Y-100010000D01*
X196160000Y-101490000D02*
X196160000Y-101100000D01*
X139240000Y-157660000D02*
X138840000Y-158260000D01*
X195990000Y-158260000D02*
X195600000Y-157670000D01*
X177000000Y-139600000D02*
X177000000Y-139210000D01*
X139376569Y-73580000D02*
G75*
G03*
X139376569Y-73580000I-56569J0D01*
G01*
X138390000Y-120180000D02*
X139490000Y-120180000D01*
X177000000Y-139210000D02*
X176610000Y-138620000D01*
X176480000Y-101120000D02*
X177580000Y-101120000D01*
X168020000Y-80980000D02*
X168610000Y-80590000D01*
X138885000Y-138620000D02*
X138880000Y-138120000D01*
X168610000Y-80590000D02*
X168610000Y-81380000D01*
X176985000Y-157670000D02*
X176980000Y-157170000D01*
X168010000Y-80430000D02*
X168010000Y-81530000D01*
X164070000Y-69940000D02*
X164670000Y-70340000D01*
X138450000Y-157660000D02*
X139240000Y-157660000D01*
X138290000Y-158260000D02*
X139390000Y-158260000D01*
X157430000Y-139220000D02*
X158530000Y-139220000D01*
X176980000Y-158650000D02*
X176980000Y-158260000D01*
X138845000Y-157660000D02*
X138840000Y-157160000D01*
X157590000Y-138620000D02*
X158380000Y-138620000D01*
X177005000Y-138620000D02*
X177000000Y-138120000D01*
X177430000Y-100520000D02*
X177030000Y-101120000D01*
X157885000Y-157680000D02*
X157880000Y-157180000D01*
X138940000Y-120560000D02*
X138940000Y-120170000D01*
X158350000Y-100530000D02*
X157950000Y-101130000D01*
X196390000Y-157670000D02*
X195990000Y-158270000D01*
X164670000Y-70890000D02*
X164670000Y-69790000D01*
X195600000Y-157670000D02*
X196390000Y-157670000D01*
X196020000Y-139600000D02*
X196020000Y-139210000D01*
X168610000Y-80985000D02*
X169110000Y-80980000D01*
X157400000Y-101130000D02*
X158500000Y-101130000D01*
X196160000Y-101100000D02*
X195770000Y-100510000D01*
X176610000Y-138620000D02*
X177400000Y-138620000D01*
X195990000Y-158650000D02*
X195990000Y-158260000D01*
X157880000Y-158270000D02*
X157490000Y-157680000D01*
X176590000Y-157670000D02*
X177380000Y-157670000D01*
X164660000Y-70340000D02*
X164070000Y-70730000D01*
X157945000Y-119580000D02*
X157940000Y-119080000D01*
X158380000Y-138620000D02*
X157980000Y-139220000D01*
X196420000Y-138620000D02*
X196020000Y-139220000D01*
X177400000Y-138620000D02*
X177000000Y-139220000D01*
X196105000Y-119570000D02*
X196100000Y-119070000D01*
X157980000Y-139210000D02*
X157590000Y-138620000D01*
X138880000Y-139210000D02*
X138490000Y-138620000D01*
X138880000Y-139600000D02*
X138880000Y-139210000D01*
X157940000Y-120560000D02*
X157940000Y-120170000D01*
X138460000Y-100520000D02*
X139250000Y-100520000D01*
X195610000Y-101110000D02*
X196710000Y-101110000D01*
X139340000Y-119580000D02*
X138940000Y-120180000D01*
X176450000Y-139220000D02*
X177550000Y-139220000D01*
X157950000Y-101510000D02*
X157950000Y-101120000D01*
X196020000Y-139210000D02*
X195630000Y-138620000D01*
X138550000Y-119580000D02*
X139340000Y-119580000D01*
X138490000Y-138620000D02*
X139280000Y-138620000D01*
X139250000Y-100520000D02*
X138850000Y-101120000D01*
X165050000Y-70340000D02*
X164660000Y-70340000D01*
X196100000Y-120160000D02*
X195710000Y-119570000D01*
X168610000Y-81380000D02*
X168010000Y-80980000D01*
X196560000Y-100510000D02*
X196160000Y-101110000D01*
X157980000Y-139600000D02*
X157980000Y-139210000D01*
X157940000Y-120170000D02*
X157550000Y-119580000D01*
X138940000Y-120170000D02*
X138550000Y-119580000D01*
X176990000Y-120170000D02*
X176600000Y-119580000D01*
X138855000Y-100520000D02*
X138850000Y-100020000D01*
X162060001Y-69600000D02*
G75*
G03*
X162060001Y-69600000I-56569J0D01*
G01*
X157955000Y-100530000D02*
X157950000Y-100030000D01*
X176995000Y-119580000D02*
X176990000Y-119080000D01*
X158280000Y-157680000D02*
X157880000Y-158280000D01*
X138850000Y-101110000D02*
X138460000Y-100520000D01*
X138945000Y-119580000D02*
X138940000Y-119080000D01*
X176600000Y-119580000D02*
X177390000Y-119580000D01*
X138840000Y-158640000D02*
X138840000Y-158250000D01*
X157330000Y-158280000D02*
X158430000Y-158280000D01*
X176990000Y-120560000D02*
X176990000Y-120170000D01*
X164070000Y-70335000D02*
X163570000Y-70340000D01*
X195995000Y-157670000D02*
X195990000Y-157170000D01*
X138850000Y-101500000D02*
X138850000Y-101110000D01*
X138840000Y-158250000D02*
X138450000Y-157660000D01*
X153466569Y-91473432D02*
G75*
G03*
X153466569Y-91473432I-56569J0D01*
G01*
X177390000Y-119580000D02*
X176990000Y-120180000D01*
X196025000Y-138620000D02*
X196020000Y-138120000D01*
X157390000Y-120180000D02*
X158490000Y-120180000D01*
X196100000Y-120550000D02*
X196100000Y-120160000D01*
X176430000Y-158270000D02*
X177530000Y-158270000D01*
X157950000Y-101120000D02*
X157560000Y-100530000D01*
X195710000Y-119570000D02*
X196500000Y-119570000D01*
X164070000Y-70730000D02*
X164070000Y-69940000D01*
X157490000Y-157680000D02*
X158280000Y-157680000D01*
X143350001Y-72950000D02*
G75*
G03*
X143350001Y-72950000I-56569J0D01*
G01*
X177030000Y-101500000D02*
X177030000Y-101110000D01*
X170410001Y-76750000D02*
G75*
G03*
X170410001Y-76750000I-56569J0D01*
G01*
X195550000Y-120170000D02*
X196650000Y-120170000D01*
X138300000Y-101120000D02*
X139400000Y-101120000D01*
X184181428Y-88758571D02*
X184324285Y-88806190D01*
X184371904Y-88853809D01*
X184419523Y-88949047D01*
X184419523Y-89091904D01*
X184371904Y-89187142D01*
X184324285Y-89234761D01*
X184229047Y-89282380D01*
X183848095Y-89282380D01*
X183848095Y-88282380D01*
X184181428Y-88282380D01*
X184276666Y-88330000D01*
X184324285Y-88377619D01*
X184371904Y-88472857D01*
X184371904Y-88568095D01*
X184324285Y-88663333D01*
X184276666Y-88710952D01*
X184181428Y-88758571D01*
X183848095Y-88758571D01*
X127071428Y-88788571D02*
X127214285Y-88836190D01*
X127261904Y-88883809D01*
X127309523Y-88979047D01*
X127309523Y-89121904D01*
X127261904Y-89217142D01*
X127214285Y-89264761D01*
X127119047Y-89312380D01*
X126738095Y-89312380D01*
X126738095Y-88312380D01*
X127071428Y-88312380D01*
X127166666Y-88360000D01*
X127214285Y-88407619D01*
X127261904Y-88502857D01*
X127261904Y-88598095D01*
X127214285Y-88693333D01*
X127166666Y-88740952D01*
X127071428Y-88788571D01*
X126738095Y-88788571D01*
X131771904Y-89036666D02*
X132248095Y-89036666D01*
X131676666Y-89322380D02*
X132010000Y-88322380D01*
X132343333Y-89322380D01*
X122512380Y-166432380D02*
X122512380Y-165432380D01*
X122845714Y-166146666D01*
X123179047Y-165432380D01*
X123179047Y-166432380D01*
X123655238Y-166432380D02*
X123655238Y-165432380D01*
X124131428Y-166432380D02*
X124131428Y-165432380D01*
X124702857Y-166432380D01*
X124702857Y-165432380D01*
X125179047Y-166432380D02*
X125179047Y-165432380D01*
X125655238Y-166432380D02*
X125655238Y-165432380D01*
X126226666Y-166432380D02*
X125798095Y-165860952D01*
X126226666Y-165432380D02*
X125655238Y-166003809D01*
X126655238Y-165908571D02*
X126988571Y-165908571D01*
X127131428Y-166432380D02*
X126655238Y-166432380D01*
X126655238Y-165432380D01*
X127131428Y-165432380D01*
X127750476Y-165956190D02*
X127750476Y-166432380D01*
X127417142Y-165432380D02*
X127750476Y-165956190D01*
X128083809Y-165432380D01*
X129750476Y-166432380D02*
X129417142Y-165956190D01*
X129179047Y-166432380D02*
X129179047Y-165432380D01*
X129560000Y-165432380D01*
X129655238Y-165480000D01*
X129702857Y-165527619D01*
X129750476Y-165622857D01*
X129750476Y-165765714D01*
X129702857Y-165860952D01*
X129655238Y-165908571D01*
X129560000Y-165956190D01*
X129179047Y-165956190D01*
X130179047Y-165908571D02*
X130512380Y-165908571D01*
X130655238Y-166432380D02*
X130179047Y-166432380D01*
X130179047Y-165432380D01*
X130655238Y-165432380D01*
X130940952Y-165432380D02*
X131274285Y-166432380D01*
X131607619Y-165432380D01*
X132893333Y-165432380D02*
X132988571Y-165432380D01*
X133083809Y-165480000D01*
X133131428Y-165527619D01*
X133179047Y-165622857D01*
X133226666Y-165813333D01*
X133226666Y-166051428D01*
X133179047Y-166241904D01*
X133131428Y-166337142D01*
X133083809Y-166384761D01*
X132988571Y-166432380D01*
X132893333Y-166432380D01*
X132798095Y-166384761D01*
X132750476Y-166337142D01*
X132702857Y-166241904D01*
X132655238Y-166051428D01*
X132655238Y-165813333D01*
X132702857Y-165622857D01*
X132750476Y-165527619D01*
X132798095Y-165480000D01*
X132893333Y-165432380D01*
X133655238Y-166337142D02*
X133702857Y-166384761D01*
X133655238Y-166432380D01*
X133607619Y-166384761D01*
X133655238Y-166337142D01*
X133655238Y-166432380D01*
X134655238Y-166432380D02*
X134083809Y-166432380D01*
X134369523Y-166432380D02*
X134369523Y-165432380D01*
X134274285Y-165575238D01*
X134179047Y-165670476D01*
X134083809Y-165718095D01*
X188881904Y-89006666D02*
X189358095Y-89006666D01*
X188786666Y-89292380D02*
X189120000Y-88292380D01*
X189453333Y-89292380D01*
%TO.C,FB1*%
X171466666Y-70528571D02*
X171133333Y-70528571D01*
X171133333Y-71052380D02*
X171133333Y-70052380D01*
X171609523Y-70052380D01*
X172323809Y-70528571D02*
X172466666Y-70576190D01*
X172514285Y-70623809D01*
X172561904Y-70719047D01*
X172561904Y-70861904D01*
X172514285Y-70957142D01*
X172466666Y-71004761D01*
X172371428Y-71052380D01*
X171990476Y-71052380D01*
X171990476Y-70052380D01*
X172323809Y-70052380D01*
X172419047Y-70100000D01*
X172466666Y-70147619D01*
X172514285Y-70242857D01*
X172514285Y-70338095D01*
X172466666Y-70433333D01*
X172419047Y-70480952D01*
X172323809Y-70528571D01*
X171990476Y-70528571D01*
X173514285Y-71052380D02*
X172942857Y-71052380D01*
X173228571Y-71052380D02*
X173228571Y-70052380D01*
X173133333Y-70195238D01*
X173038095Y-70290476D01*
X172942857Y-70338095D01*
%TO.C,Y1*%
X147723809Y-90646190D02*
X147723809Y-91122380D01*
X147390476Y-90122380D02*
X147723809Y-90646190D01*
X148057142Y-90122380D01*
X148914285Y-91122380D02*
X148342857Y-91122380D01*
X148628571Y-91122380D02*
X148628571Y-90122380D01*
X148533333Y-90265238D01*
X148438095Y-90360476D01*
X148342857Y-90408095D01*
%TO.C,D1*%
X135421880Y-101512595D02*
X134421880Y-101512595D01*
X134421880Y-101274500D01*
X134469500Y-101131642D01*
X134564738Y-101036404D01*
X134659976Y-100988785D01*
X134850452Y-100941166D01*
X134993309Y-100941166D01*
X135183785Y-100988785D01*
X135279023Y-101036404D01*
X135374261Y-101131642D01*
X135421880Y-101274500D01*
X135421880Y-101512595D01*
X135421880Y-99988785D02*
X135421880Y-100560214D01*
X135421880Y-100274500D02*
X134421880Y-100274500D01*
X134564738Y-100369738D01*
X134659976Y-100464976D01*
X134707595Y-100560214D01*
%TO.C,D15*%
X192572380Y-140874285D02*
X191572380Y-140874285D01*
X191572380Y-140636190D01*
X191620000Y-140493333D01*
X191715238Y-140398095D01*
X191810476Y-140350476D01*
X192000952Y-140302857D01*
X192143809Y-140302857D01*
X192334285Y-140350476D01*
X192429523Y-140398095D01*
X192524761Y-140493333D01*
X192572380Y-140636190D01*
X192572380Y-140874285D01*
X192572380Y-139350476D02*
X192572380Y-139921904D01*
X192572380Y-139636190D02*
X191572380Y-139636190D01*
X191715238Y-139731428D01*
X191810476Y-139826666D01*
X191858095Y-139921904D01*
X191572380Y-138445714D02*
X191572380Y-138921904D01*
X192048571Y-138969523D01*
X192000952Y-138921904D01*
X191953333Y-138826666D01*
X191953333Y-138588571D01*
X192000952Y-138493333D01*
X192048571Y-138445714D01*
X192143809Y-138398095D01*
X192381904Y-138398095D01*
X192477142Y-138445714D01*
X192524761Y-138493333D01*
X192572380Y-138588571D01*
X192572380Y-138826666D01*
X192524761Y-138921904D01*
X192477142Y-138969523D01*
%TO.C,D6*%
X154472380Y-120898095D02*
X153472380Y-120898095D01*
X153472380Y-120660000D01*
X153520000Y-120517142D01*
X153615238Y-120421904D01*
X153710476Y-120374285D01*
X153900952Y-120326666D01*
X154043809Y-120326666D01*
X154234285Y-120374285D01*
X154329523Y-120421904D01*
X154424761Y-120517142D01*
X154472380Y-120660000D01*
X154472380Y-120898095D01*
X153472380Y-119469523D02*
X153472380Y-119660000D01*
X153520000Y-119755238D01*
X153567619Y-119802857D01*
X153710476Y-119898095D01*
X153900952Y-119945714D01*
X154281904Y-119945714D01*
X154377142Y-119898095D01*
X154424761Y-119850476D01*
X154472380Y-119755238D01*
X154472380Y-119564761D01*
X154424761Y-119469523D01*
X154377142Y-119421904D01*
X154281904Y-119374285D01*
X154043809Y-119374285D01*
X153948571Y-119421904D01*
X153900952Y-119469523D01*
X153853333Y-119564761D01*
X153853333Y-119755238D01*
X153900952Y-119850476D01*
X153948571Y-119898095D01*
X154043809Y-119945714D01*
%TO.C,*%
%TO.C,R9*%
X157783333Y-71712380D02*
X157450000Y-71236190D01*
X157211904Y-71712380D02*
X157211904Y-70712380D01*
X157592857Y-70712380D01*
X157688095Y-70760000D01*
X157735714Y-70807619D01*
X157783333Y-70902857D01*
X157783333Y-71045714D01*
X157735714Y-71140952D01*
X157688095Y-71188571D01*
X157592857Y-71236190D01*
X157211904Y-71236190D01*
X158259523Y-71712380D02*
X158450000Y-71712380D01*
X158545238Y-71664761D01*
X158592857Y-71617142D01*
X158688095Y-71474285D01*
X158735714Y-71283809D01*
X158735714Y-70902857D01*
X158688095Y-70807619D01*
X158640476Y-70760000D01*
X158545238Y-70712380D01*
X158354761Y-70712380D01*
X158259523Y-70760000D01*
X158211904Y-70807619D01*
X158164285Y-70902857D01*
X158164285Y-71140952D01*
X158211904Y-71236190D01*
X158259523Y-71283809D01*
X158354761Y-71331428D01*
X158545238Y-71331428D01*
X158640476Y-71283809D01*
X158688095Y-71236190D01*
X158735714Y-71140952D01*
%TO.C,*%
%TO.C,R7*%
X170905833Y-78482380D02*
X170572500Y-78006190D01*
X170334404Y-78482380D02*
X170334404Y-77482380D01*
X170715357Y-77482380D01*
X170810595Y-77530000D01*
X170858214Y-77577619D01*
X170905833Y-77672857D01*
X170905833Y-77815714D01*
X170858214Y-77910952D01*
X170810595Y-77958571D01*
X170715357Y-78006190D01*
X170334404Y-78006190D01*
X171239166Y-77482380D02*
X171905833Y-77482380D01*
X171477261Y-78482380D01*
%TO.C,C8*%
X165383333Y-78377142D02*
X165335714Y-78424761D01*
X165192857Y-78472380D01*
X165097619Y-78472380D01*
X164954761Y-78424761D01*
X164859523Y-78329523D01*
X164811904Y-78234285D01*
X164764285Y-78043809D01*
X164764285Y-77900952D01*
X164811904Y-77710476D01*
X164859523Y-77615238D01*
X164954761Y-77520000D01*
X165097619Y-77472380D01*
X165192857Y-77472380D01*
X165335714Y-77520000D01*
X165383333Y-77567619D01*
X165954761Y-77900952D02*
X165859523Y-77853333D01*
X165811904Y-77805714D01*
X165764285Y-77710476D01*
X165764285Y-77662857D01*
X165811904Y-77567619D01*
X165859523Y-77520000D01*
X165954761Y-77472380D01*
X166145238Y-77472380D01*
X166240476Y-77520000D01*
X166288095Y-77567619D01*
X166335714Y-77662857D01*
X166335714Y-77710476D01*
X166288095Y-77805714D01*
X166240476Y-77853333D01*
X166145238Y-77900952D01*
X165954761Y-77900952D01*
X165859523Y-77948571D01*
X165811904Y-77996190D01*
X165764285Y-78091428D01*
X165764285Y-78281904D01*
X165811904Y-78377142D01*
X165859523Y-78424761D01*
X165954761Y-78472380D01*
X166145238Y-78472380D01*
X166240476Y-78424761D01*
X166288095Y-78377142D01*
X166335714Y-78281904D01*
X166335714Y-78091428D01*
X166288095Y-77996190D01*
X166240476Y-77948571D01*
X166145238Y-77900952D01*
%TO.C,D16*%
X192572380Y-159914285D02*
X191572380Y-159914285D01*
X191572380Y-159676190D01*
X191620000Y-159533333D01*
X191715238Y-159438095D01*
X191810476Y-159390476D01*
X192000952Y-159342857D01*
X192143809Y-159342857D01*
X192334285Y-159390476D01*
X192429523Y-159438095D01*
X192524761Y-159533333D01*
X192572380Y-159676190D01*
X192572380Y-159914285D01*
X192572380Y-158390476D02*
X192572380Y-158961904D01*
X192572380Y-158676190D02*
X191572380Y-158676190D01*
X191715238Y-158771428D01*
X191810476Y-158866666D01*
X191858095Y-158961904D01*
X191572380Y-157533333D02*
X191572380Y-157723809D01*
X191620000Y-157819047D01*
X191667619Y-157866666D01*
X191810476Y-157961904D01*
X192000952Y-158009523D01*
X192381904Y-158009523D01*
X192477142Y-157961904D01*
X192524761Y-157914285D01*
X192572380Y-157819047D01*
X192572380Y-157628571D01*
X192524761Y-157533333D01*
X192477142Y-157485714D01*
X192381904Y-157438095D01*
X192143809Y-157438095D01*
X192048571Y-157485714D01*
X192000952Y-157533333D01*
X191953333Y-157628571D01*
X191953333Y-157819047D01*
X192000952Y-157914285D01*
X192048571Y-157961904D01*
X192143809Y-158009523D01*
%TO.C,R5*%
X143913333Y-70492380D02*
X143580000Y-70016190D01*
X143341904Y-70492380D02*
X143341904Y-69492380D01*
X143722857Y-69492380D01*
X143818095Y-69540000D01*
X143865714Y-69587619D01*
X143913333Y-69682857D01*
X143913333Y-69825714D01*
X143865714Y-69920952D01*
X143818095Y-69968571D01*
X143722857Y-70016190D01*
X143341904Y-70016190D01*
X144818095Y-69492380D02*
X144341904Y-69492380D01*
X144294285Y-69968571D01*
X144341904Y-69920952D01*
X144437142Y-69873333D01*
X144675238Y-69873333D01*
X144770476Y-69920952D01*
X144818095Y-69968571D01*
X144865714Y-70063809D01*
X144865714Y-70301904D01*
X144818095Y-70397142D01*
X144770476Y-70444761D01*
X144675238Y-70492380D01*
X144437142Y-70492380D01*
X144341904Y-70444761D01*
X144294285Y-70397142D01*
%TO.C,U6*%
X157388095Y-65902380D02*
X157388095Y-66711904D01*
X157435714Y-66807142D01*
X157483333Y-66854761D01*
X157578571Y-66902380D01*
X157769047Y-66902380D01*
X157864285Y-66854761D01*
X157911904Y-66807142D01*
X157959523Y-66711904D01*
X157959523Y-65902380D01*
X158864285Y-65902380D02*
X158673809Y-65902380D01*
X158578571Y-65950000D01*
X158530952Y-65997619D01*
X158435714Y-66140476D01*
X158388095Y-66330952D01*
X158388095Y-66711904D01*
X158435714Y-66807142D01*
X158483333Y-66854761D01*
X158578571Y-66902380D01*
X158769047Y-66902380D01*
X158864285Y-66854761D01*
X158911904Y-66807142D01*
X158959523Y-66711904D01*
X158959523Y-66473809D01*
X158911904Y-66378571D01*
X158864285Y-66330952D01*
X158769047Y-66283333D01*
X158578571Y-66283333D01*
X158483333Y-66330952D01*
X158435714Y-66378571D01*
X158388095Y-66473809D01*
%TO.C,R3*%
X159322380Y-74616666D02*
X158846190Y-74950000D01*
X159322380Y-75188095D02*
X158322380Y-75188095D01*
X158322380Y-74807142D01*
X158370000Y-74711904D01*
X158417619Y-74664285D01*
X158512857Y-74616666D01*
X158655714Y-74616666D01*
X158750952Y-74664285D01*
X158798571Y-74711904D01*
X158846190Y-74807142D01*
X158846190Y-75188095D01*
X158322380Y-74283333D02*
X158322380Y-73664285D01*
X158703333Y-73997619D01*
X158703333Y-73854761D01*
X158750952Y-73759523D01*
X158798571Y-73711904D01*
X158893809Y-73664285D01*
X159131904Y-73664285D01*
X159227142Y-73711904D01*
X159274761Y-73759523D01*
X159322380Y-73854761D01*
X159322380Y-74140476D01*
X159274761Y-74235714D01*
X159227142Y-74283333D01*
%TO.C,C17*%
X171017142Y-83072857D02*
X171064761Y-83120476D01*
X171112380Y-83263333D01*
X171112380Y-83358571D01*
X171064761Y-83501428D01*
X170969523Y-83596666D01*
X170874285Y-83644285D01*
X170683809Y-83691904D01*
X170540952Y-83691904D01*
X170350476Y-83644285D01*
X170255238Y-83596666D01*
X170160000Y-83501428D01*
X170112380Y-83358571D01*
X170112380Y-83263333D01*
X170160000Y-83120476D01*
X170207619Y-83072857D01*
X171112380Y-82120476D02*
X171112380Y-82691904D01*
X171112380Y-82406190D02*
X170112380Y-82406190D01*
X170255238Y-82501428D01*
X170350476Y-82596666D01*
X170398095Y-82691904D01*
X170112380Y-81787142D02*
X170112380Y-81120476D01*
X171112380Y-81549047D01*
%TO.C,C14*%
X155307142Y-88952857D02*
X155354761Y-89000476D01*
X155402380Y-89143333D01*
X155402380Y-89238571D01*
X155354761Y-89381428D01*
X155259523Y-89476666D01*
X155164285Y-89524285D01*
X154973809Y-89571904D01*
X154830952Y-89571904D01*
X154640476Y-89524285D01*
X154545238Y-89476666D01*
X154450000Y-89381428D01*
X154402380Y-89238571D01*
X154402380Y-89143333D01*
X154450000Y-89000476D01*
X154497619Y-88952857D01*
X155402380Y-88000476D02*
X155402380Y-88571904D01*
X155402380Y-88286190D02*
X154402380Y-88286190D01*
X154545238Y-88381428D01*
X154640476Y-88476666D01*
X154688095Y-88571904D01*
X154735714Y-87143333D02*
X155402380Y-87143333D01*
X154354761Y-87381428D02*
X155069047Y-87619523D01*
X155069047Y-87000476D01*
%TO.C,*%
%TO.C,SW1*%
X123956666Y-97714761D02*
X124099523Y-97762380D01*
X124337619Y-97762380D01*
X124432857Y-97714761D01*
X124480476Y-97667142D01*
X124528095Y-97571904D01*
X124528095Y-97476666D01*
X124480476Y-97381428D01*
X124432857Y-97333809D01*
X124337619Y-97286190D01*
X124147142Y-97238571D01*
X124051904Y-97190952D01*
X124004285Y-97143333D01*
X123956666Y-97048095D01*
X123956666Y-96952857D01*
X124004285Y-96857619D01*
X124051904Y-96810000D01*
X124147142Y-96762380D01*
X124385238Y-96762380D01*
X124528095Y-96810000D01*
X124861428Y-96762380D02*
X125099523Y-97762380D01*
X125290000Y-97048095D01*
X125480476Y-97762380D01*
X125718571Y-96762380D01*
X126623333Y-97762380D02*
X126051904Y-97762380D01*
X126337619Y-97762380D02*
X126337619Y-96762380D01*
X126242380Y-96905238D01*
X126147142Y-97000476D01*
X126051904Y-97048095D01*
%TO.C,*%
%TO.C,R4*%
X172702380Y-82666666D02*
X172226190Y-83000000D01*
X172702380Y-83238095D02*
X171702380Y-83238095D01*
X171702380Y-82857142D01*
X171750000Y-82761904D01*
X171797619Y-82714285D01*
X171892857Y-82666666D01*
X172035714Y-82666666D01*
X172130952Y-82714285D01*
X172178571Y-82761904D01*
X172226190Y-82857142D01*
X172226190Y-83238095D01*
X172035714Y-81809523D02*
X172702380Y-81809523D01*
X171654761Y-82047619D02*
X172369047Y-82285714D01*
X172369047Y-81666666D01*
%TO.C,C6*%
X165153333Y-77037142D02*
X165105714Y-77084761D01*
X164962857Y-77132380D01*
X164867619Y-77132380D01*
X164724761Y-77084761D01*
X164629523Y-76989523D01*
X164581904Y-76894285D01*
X164534285Y-76703809D01*
X164534285Y-76560952D01*
X164581904Y-76370476D01*
X164629523Y-76275238D01*
X164724761Y-76180000D01*
X164867619Y-76132380D01*
X164962857Y-76132380D01*
X165105714Y-76180000D01*
X165153333Y-76227619D01*
X166010476Y-76132380D02*
X165820000Y-76132380D01*
X165724761Y-76180000D01*
X165677142Y-76227619D01*
X165581904Y-76370476D01*
X165534285Y-76560952D01*
X165534285Y-76941904D01*
X165581904Y-77037142D01*
X165629523Y-77084761D01*
X165724761Y-77132380D01*
X165915238Y-77132380D01*
X166010476Y-77084761D01*
X166058095Y-77037142D01*
X166105714Y-76941904D01*
X166105714Y-76703809D01*
X166058095Y-76608571D01*
X166010476Y-76560952D01*
X165915238Y-76513333D01*
X165724761Y-76513333D01*
X165629523Y-76560952D01*
X165581904Y-76608571D01*
X165534285Y-76703809D01*
%TO.C,D11*%
X173532380Y-140664285D02*
X172532380Y-140664285D01*
X172532380Y-140426190D01*
X172580000Y-140283333D01*
X172675238Y-140188095D01*
X172770476Y-140140476D01*
X172960952Y-140092857D01*
X173103809Y-140092857D01*
X173294285Y-140140476D01*
X173389523Y-140188095D01*
X173484761Y-140283333D01*
X173532380Y-140426190D01*
X173532380Y-140664285D01*
X173532380Y-139140476D02*
X173532380Y-139711904D01*
X173532380Y-139426190D02*
X172532380Y-139426190D01*
X172675238Y-139521428D01*
X172770476Y-139616666D01*
X172818095Y-139711904D01*
X173532380Y-138188095D02*
X173532380Y-138759523D01*
X173532380Y-138473809D02*
X172532380Y-138473809D01*
X172675238Y-138569047D01*
X172770476Y-138664285D01*
X172818095Y-138759523D01*
%TO.C,C11*%
X159017142Y-91862857D02*
X159064761Y-91910476D01*
X159112380Y-92053333D01*
X159112380Y-92148571D01*
X159064761Y-92291428D01*
X158969523Y-92386666D01*
X158874285Y-92434285D01*
X158683809Y-92481904D01*
X158540952Y-92481904D01*
X158350476Y-92434285D01*
X158255238Y-92386666D01*
X158160000Y-92291428D01*
X158112380Y-92148571D01*
X158112380Y-92053333D01*
X158160000Y-91910476D01*
X158207619Y-91862857D01*
X159112380Y-90910476D02*
X159112380Y-91481904D01*
X159112380Y-91196190D02*
X158112380Y-91196190D01*
X158255238Y-91291428D01*
X158350476Y-91386666D01*
X158398095Y-91481904D01*
X159112380Y-89958095D02*
X159112380Y-90529523D01*
X159112380Y-90243809D02*
X158112380Y-90243809D01*
X158255238Y-90339047D01*
X158350476Y-90434285D01*
X158398095Y-90529523D01*
%TO.C,D4*%
X135422380Y-158928095D02*
X134422380Y-158928095D01*
X134422380Y-158690000D01*
X134470000Y-158547142D01*
X134565238Y-158451904D01*
X134660476Y-158404285D01*
X134850952Y-158356666D01*
X134993809Y-158356666D01*
X135184285Y-158404285D01*
X135279523Y-158451904D01*
X135374761Y-158547142D01*
X135422380Y-158690000D01*
X135422380Y-158928095D01*
X134755714Y-157499523D02*
X135422380Y-157499523D01*
X134374761Y-157737619D02*
X135089047Y-157975714D01*
X135089047Y-157356666D01*
%TO.C,*%
%TO.C,D14*%
X192572380Y-121874285D02*
X191572380Y-121874285D01*
X191572380Y-121636190D01*
X191620000Y-121493333D01*
X191715238Y-121398095D01*
X191810476Y-121350476D01*
X192000952Y-121302857D01*
X192143809Y-121302857D01*
X192334285Y-121350476D01*
X192429523Y-121398095D01*
X192524761Y-121493333D01*
X192572380Y-121636190D01*
X192572380Y-121874285D01*
X192572380Y-120350476D02*
X192572380Y-120921904D01*
X192572380Y-120636190D02*
X191572380Y-120636190D01*
X191715238Y-120731428D01*
X191810476Y-120826666D01*
X191858095Y-120921904D01*
X191905714Y-119493333D02*
X192572380Y-119493333D01*
X191524761Y-119731428D02*
X192239047Y-119969523D01*
X192239047Y-119350476D01*
%TO.C,C9*%
X165503333Y-81377142D02*
X165455714Y-81424761D01*
X165312857Y-81472380D01*
X165217619Y-81472380D01*
X165074761Y-81424761D01*
X164979523Y-81329523D01*
X164931904Y-81234285D01*
X164884285Y-81043809D01*
X164884285Y-80900952D01*
X164931904Y-80710476D01*
X164979523Y-80615238D01*
X165074761Y-80520000D01*
X165217619Y-80472380D01*
X165312857Y-80472380D01*
X165455714Y-80520000D01*
X165503333Y-80567619D01*
X165979523Y-81472380D02*
X166170000Y-81472380D01*
X166265238Y-81424761D01*
X166312857Y-81377142D01*
X166408095Y-81234285D01*
X166455714Y-81043809D01*
X166455714Y-80662857D01*
X166408095Y-80567619D01*
X166360476Y-80520000D01*
X166265238Y-80472380D01*
X166074761Y-80472380D01*
X165979523Y-80520000D01*
X165931904Y-80567619D01*
X165884285Y-80662857D01*
X165884285Y-80900952D01*
X165931904Y-80996190D01*
X165979523Y-81043809D01*
X166074761Y-81091428D01*
X166265238Y-81091428D01*
X166360476Y-81043809D01*
X166408095Y-80996190D01*
X166455714Y-80900952D01*
%TO.C,SW10*%
X161580476Y-97714761D02*
X161723333Y-97762380D01*
X161961428Y-97762380D01*
X162056666Y-97714761D01*
X162104285Y-97667142D01*
X162151904Y-97571904D01*
X162151904Y-97476666D01*
X162104285Y-97381428D01*
X162056666Y-97333809D01*
X161961428Y-97286190D01*
X161770952Y-97238571D01*
X161675714Y-97190952D01*
X161628095Y-97143333D01*
X161580476Y-97048095D01*
X161580476Y-96952857D01*
X161628095Y-96857619D01*
X161675714Y-96810000D01*
X161770952Y-96762380D01*
X162009047Y-96762380D01*
X162151904Y-96810000D01*
X162485238Y-96762380D02*
X162723333Y-97762380D01*
X162913809Y-97048095D01*
X163104285Y-97762380D01*
X163342380Y-96762380D01*
X164247142Y-97762380D02*
X163675714Y-97762380D01*
X163961428Y-97762380D02*
X163961428Y-96762380D01*
X163866190Y-96905238D01*
X163770952Y-97000476D01*
X163675714Y-97048095D01*
X164866190Y-96762380D02*
X164961428Y-96762380D01*
X165056666Y-96810000D01*
X165104285Y-96857619D01*
X165151904Y-96952857D01*
X165199523Y-97143333D01*
X165199523Y-97381428D01*
X165151904Y-97571904D01*
X165104285Y-97667142D01*
X165056666Y-97714761D01*
X164961428Y-97762380D01*
X164866190Y-97762380D01*
X164770952Y-97714761D01*
X164723333Y-97667142D01*
X164675714Y-97571904D01*
X164628095Y-97381428D01*
X164628095Y-97143333D01*
X164675714Y-96952857D01*
X164723333Y-96857619D01*
X164770952Y-96810000D01*
X164866190Y-96762380D01*
%TO.C,SW17*%
X180630476Y-135814761D02*
X180773333Y-135862380D01*
X181011428Y-135862380D01*
X181106666Y-135814761D01*
X181154285Y-135767142D01*
X181201904Y-135671904D01*
X181201904Y-135576666D01*
X181154285Y-135481428D01*
X181106666Y-135433809D01*
X181011428Y-135386190D01*
X180820952Y-135338571D01*
X180725714Y-135290952D01*
X180678095Y-135243333D01*
X180630476Y-135148095D01*
X180630476Y-135052857D01*
X180678095Y-134957619D01*
X180725714Y-134910000D01*
X180820952Y-134862380D01*
X181059047Y-134862380D01*
X181201904Y-134910000D01*
X181535238Y-134862380D02*
X181773333Y-135862380D01*
X181963809Y-135148095D01*
X182154285Y-135862380D01*
X182392380Y-134862380D01*
X183297142Y-135862380D02*
X182725714Y-135862380D01*
X183011428Y-135862380D02*
X183011428Y-134862380D01*
X182916190Y-135005238D01*
X182820952Y-135100476D01*
X182725714Y-135148095D01*
X183630476Y-134862380D02*
X184297142Y-134862380D01*
X183868571Y-135862380D01*
%TO.C,D17*%
X167068214Y-77992380D02*
X167068214Y-76992380D01*
X167306309Y-76992380D01*
X167449166Y-77040000D01*
X167544404Y-77135238D01*
X167592023Y-77230476D01*
X167639642Y-77420952D01*
X167639642Y-77563809D01*
X167592023Y-77754285D01*
X167544404Y-77849523D01*
X167449166Y-77944761D01*
X167306309Y-77992380D01*
X167068214Y-77992380D01*
X168592023Y-77992380D02*
X168020595Y-77992380D01*
X168306309Y-77992380D02*
X168306309Y-76992380D01*
X168211071Y-77135238D01*
X168115833Y-77230476D01*
X168020595Y-77278095D01*
X168925357Y-76992380D02*
X169592023Y-76992380D01*
X169163452Y-77992380D01*
%TO.C,*%
%TO.C,C3*%
X156807142Y-77666666D02*
X156854761Y-77714285D01*
X156902380Y-77857142D01*
X156902380Y-77952380D01*
X156854761Y-78095238D01*
X156759523Y-78190476D01*
X156664285Y-78238095D01*
X156473809Y-78285714D01*
X156330952Y-78285714D01*
X156140476Y-78238095D01*
X156045238Y-78190476D01*
X155950000Y-78095238D01*
X155902380Y-77952380D01*
X155902380Y-77857142D01*
X155950000Y-77714285D01*
X155997619Y-77666666D01*
X155902380Y-77333333D02*
X155902380Y-76714285D01*
X156283333Y-77047619D01*
X156283333Y-76904761D01*
X156330952Y-76809523D01*
X156378571Y-76761904D01*
X156473809Y-76714285D01*
X156711904Y-76714285D01*
X156807142Y-76761904D01*
X156854761Y-76809523D01*
X156902380Y-76904761D01*
X156902380Y-77190476D01*
X156854761Y-77285714D01*
X156807142Y-77333333D01*
%TO.C,D7*%
X154462380Y-140058095D02*
X153462380Y-140058095D01*
X153462380Y-139820000D01*
X153510000Y-139677142D01*
X153605238Y-139581904D01*
X153700476Y-139534285D01*
X153890952Y-139486666D01*
X154033809Y-139486666D01*
X154224285Y-139534285D01*
X154319523Y-139581904D01*
X154414761Y-139677142D01*
X154462380Y-139820000D01*
X154462380Y-140058095D01*
X153462380Y-139153333D02*
X153462380Y-138486666D01*
X154462380Y-138915238D01*
%TO.C,C12*%
X150737142Y-82797142D02*
X150689523Y-82844761D01*
X150546666Y-82892380D01*
X150451428Y-82892380D01*
X150308571Y-82844761D01*
X150213333Y-82749523D01*
X150165714Y-82654285D01*
X150118095Y-82463809D01*
X150118095Y-82320952D01*
X150165714Y-82130476D01*
X150213333Y-82035238D01*
X150308571Y-81940000D01*
X150451428Y-81892380D01*
X150546666Y-81892380D01*
X150689523Y-81940000D01*
X150737142Y-81987619D01*
X151689523Y-82892380D02*
X151118095Y-82892380D01*
X151403809Y-82892380D02*
X151403809Y-81892380D01*
X151308571Y-82035238D01*
X151213333Y-82130476D01*
X151118095Y-82178095D01*
X152070476Y-81987619D02*
X152118095Y-81940000D01*
X152213333Y-81892380D01*
X152451428Y-81892380D01*
X152546666Y-81940000D01*
X152594285Y-81987619D01*
X152641904Y-82082857D01*
X152641904Y-82178095D01*
X152594285Y-82320952D01*
X152022857Y-82892380D01*
X152641904Y-82892380D01*
%TO.C,C18*%
X148887142Y-79207142D02*
X148839523Y-79254761D01*
X148696666Y-79302380D01*
X148601428Y-79302380D01*
X148458571Y-79254761D01*
X148363333Y-79159523D01*
X148315714Y-79064285D01*
X148268095Y-78873809D01*
X148268095Y-78730952D01*
X148315714Y-78540476D01*
X148363333Y-78445238D01*
X148458571Y-78350000D01*
X148601428Y-78302380D01*
X148696666Y-78302380D01*
X148839523Y-78350000D01*
X148887142Y-78397619D01*
X149839523Y-79302380D02*
X149268095Y-79302380D01*
X149553809Y-79302380D02*
X149553809Y-78302380D01*
X149458571Y-78445238D01*
X149363333Y-78540476D01*
X149268095Y-78588095D01*
X150410952Y-78730952D02*
X150315714Y-78683333D01*
X150268095Y-78635714D01*
X150220476Y-78540476D01*
X150220476Y-78492857D01*
X150268095Y-78397619D01*
X150315714Y-78350000D01*
X150410952Y-78302380D01*
X150601428Y-78302380D01*
X150696666Y-78350000D01*
X150744285Y-78397619D01*
X150791904Y-78492857D01*
X150791904Y-78540476D01*
X150744285Y-78635714D01*
X150696666Y-78683333D01*
X150601428Y-78730952D01*
X150410952Y-78730952D01*
X150315714Y-78778571D01*
X150268095Y-78826190D01*
X150220476Y-78921428D01*
X150220476Y-79111904D01*
X150268095Y-79207142D01*
X150315714Y-79254761D01*
X150410952Y-79302380D01*
X150601428Y-79302380D01*
X150696666Y-79254761D01*
X150744285Y-79207142D01*
X150791904Y-79111904D01*
X150791904Y-78921428D01*
X150744285Y-78826190D01*
X150696666Y-78778571D01*
X150601428Y-78730952D01*
%TO.C,D12*%
X173521880Y-160014285D02*
X172521880Y-160014285D01*
X172521880Y-159776190D01*
X172569500Y-159633333D01*
X172664738Y-159538095D01*
X172759976Y-159490476D01*
X172950452Y-159442857D01*
X173093309Y-159442857D01*
X173283785Y-159490476D01*
X173379023Y-159538095D01*
X173474261Y-159633333D01*
X173521880Y-159776190D01*
X173521880Y-160014285D01*
X173521880Y-158490476D02*
X173521880Y-159061904D01*
X173521880Y-158776190D02*
X172521880Y-158776190D01*
X172664738Y-158871428D01*
X172759976Y-158966666D01*
X172807595Y-159061904D01*
X172617119Y-158109523D02*
X172569500Y-158061904D01*
X172521880Y-157966666D01*
X172521880Y-157728571D01*
X172569500Y-157633333D01*
X172617119Y-157585714D01*
X172712357Y-157538095D01*
X172807595Y-157538095D01*
X172950452Y-157585714D01*
X173521880Y-158157142D01*
X173521880Y-157538095D01*
%TO.C,*%
%TO.C,SW9*%
X143006666Y-154864761D02*
X143149523Y-154912380D01*
X143387619Y-154912380D01*
X143482857Y-154864761D01*
X143530476Y-154817142D01*
X143578095Y-154721904D01*
X143578095Y-154626666D01*
X143530476Y-154531428D01*
X143482857Y-154483809D01*
X143387619Y-154436190D01*
X143197142Y-154388571D01*
X143101904Y-154340952D01*
X143054285Y-154293333D01*
X143006666Y-154198095D01*
X143006666Y-154102857D01*
X143054285Y-154007619D01*
X143101904Y-153960000D01*
X143197142Y-153912380D01*
X143435238Y-153912380D01*
X143578095Y-153960000D01*
X143911428Y-153912380D02*
X144149523Y-154912380D01*
X144340000Y-154198095D01*
X144530476Y-154912380D01*
X144768571Y-153912380D01*
X145197142Y-154912380D02*
X145387619Y-154912380D01*
X145482857Y-154864761D01*
X145530476Y-154817142D01*
X145625714Y-154674285D01*
X145673333Y-154483809D01*
X145673333Y-154102857D01*
X145625714Y-154007619D01*
X145578095Y-153960000D01*
X145482857Y-153912380D01*
X145292380Y-153912380D01*
X145197142Y-153960000D01*
X145149523Y-154007619D01*
X145101904Y-154102857D01*
X145101904Y-154340952D01*
X145149523Y-154436190D01*
X145197142Y-154483809D01*
X145292380Y-154531428D01*
X145482857Y-154531428D01*
X145578095Y-154483809D01*
X145625714Y-154436190D01*
X145673333Y-154340952D01*
%TO.C,*%
%TO.C,U3*%
X147428095Y-70742380D02*
X147428095Y-71551904D01*
X147475714Y-71647142D01*
X147523333Y-71694761D01*
X147618571Y-71742380D01*
X147809047Y-71742380D01*
X147904285Y-71694761D01*
X147951904Y-71647142D01*
X147999523Y-71551904D01*
X147999523Y-70742380D01*
X148380476Y-70742380D02*
X148999523Y-70742380D01*
X148666190Y-71123333D01*
X148809047Y-71123333D01*
X148904285Y-71170952D01*
X148951904Y-71218571D01*
X148999523Y-71313809D01*
X148999523Y-71551904D01*
X148951904Y-71647142D01*
X148904285Y-71694761D01*
X148809047Y-71742380D01*
X148523333Y-71742380D01*
X148428095Y-71694761D01*
X148380476Y-71647142D01*
%TO.C,U4*%
X143698095Y-82702380D02*
X143698095Y-83511904D01*
X143745714Y-83607142D01*
X143793333Y-83654761D01*
X143888571Y-83702380D01*
X144079047Y-83702380D01*
X144174285Y-83654761D01*
X144221904Y-83607142D01*
X144269523Y-83511904D01*
X144269523Y-82702380D01*
X145174285Y-83035714D02*
X145174285Y-83702380D01*
X144936190Y-82654761D02*
X144698095Y-83369047D01*
X145317142Y-83369047D01*
%TO.C,D18*%
X162435714Y-74642380D02*
X162435714Y-73642380D01*
X162673809Y-73642380D01*
X162816666Y-73690000D01*
X162911904Y-73785238D01*
X162959523Y-73880476D01*
X163007142Y-74070952D01*
X163007142Y-74213809D01*
X162959523Y-74404285D01*
X162911904Y-74499523D01*
X162816666Y-74594761D01*
X162673809Y-74642380D01*
X162435714Y-74642380D01*
X163959523Y-74642380D02*
X163388095Y-74642380D01*
X163673809Y-74642380D02*
X163673809Y-73642380D01*
X163578571Y-73785238D01*
X163483333Y-73880476D01*
X163388095Y-73928095D01*
X164530952Y-74070952D02*
X164435714Y-74023333D01*
X164388095Y-73975714D01*
X164340476Y-73880476D01*
X164340476Y-73832857D01*
X164388095Y-73737619D01*
X164435714Y-73690000D01*
X164530952Y-73642380D01*
X164721428Y-73642380D01*
X164816666Y-73690000D01*
X164864285Y-73737619D01*
X164911904Y-73832857D01*
X164911904Y-73880476D01*
X164864285Y-73975714D01*
X164816666Y-74023333D01*
X164721428Y-74070952D01*
X164530952Y-74070952D01*
X164435714Y-74118571D01*
X164388095Y-74166190D01*
X164340476Y-74261428D01*
X164340476Y-74451904D01*
X164388095Y-74547142D01*
X164435714Y-74594761D01*
X164530952Y-74642380D01*
X164721428Y-74642380D01*
X164816666Y-74594761D01*
X164864285Y-74547142D01*
X164911904Y-74451904D01*
X164911904Y-74261428D01*
X164864285Y-74166190D01*
X164816666Y-74118571D01*
X164721428Y-74070952D01*
%TO.C,SW6*%
X143006666Y-97714761D02*
X143149523Y-97762380D01*
X143387619Y-97762380D01*
X143482857Y-97714761D01*
X143530476Y-97667142D01*
X143578095Y-97571904D01*
X143578095Y-97476666D01*
X143530476Y-97381428D01*
X143482857Y-97333809D01*
X143387619Y-97286190D01*
X143197142Y-97238571D01*
X143101904Y-97190952D01*
X143054285Y-97143333D01*
X143006666Y-97048095D01*
X143006666Y-96952857D01*
X143054285Y-96857619D01*
X143101904Y-96810000D01*
X143197142Y-96762380D01*
X143435238Y-96762380D01*
X143578095Y-96810000D01*
X143911428Y-96762380D02*
X144149523Y-97762380D01*
X144340000Y-97048095D01*
X144530476Y-97762380D01*
X144768571Y-96762380D01*
X145578095Y-96762380D02*
X145387619Y-96762380D01*
X145292380Y-96810000D01*
X145244761Y-96857619D01*
X145149523Y-97000476D01*
X145101904Y-97190952D01*
X145101904Y-97571904D01*
X145149523Y-97667142D01*
X145197142Y-97714761D01*
X145292380Y-97762380D01*
X145482857Y-97762380D01*
X145578095Y-97714761D01*
X145625714Y-97667142D01*
X145673333Y-97571904D01*
X145673333Y-97333809D01*
X145625714Y-97238571D01*
X145578095Y-97190952D01*
X145482857Y-97143333D01*
X145292380Y-97143333D01*
X145197142Y-97190952D01*
X145149523Y-97238571D01*
X145101904Y-97333809D01*
%TO.C,U2*%
X169342380Y-76099404D02*
X170151904Y-76099404D01*
X170247142Y-76051785D01*
X170294761Y-76004166D01*
X170342380Y-75908928D01*
X170342380Y-75718452D01*
X170294761Y-75623214D01*
X170247142Y-75575595D01*
X170151904Y-75527976D01*
X169342380Y-75527976D01*
X169437619Y-75099404D02*
X169390000Y-75051785D01*
X169342380Y-74956547D01*
X169342380Y-74718452D01*
X169390000Y-74623214D01*
X169437619Y-74575595D01*
X169532857Y-74527976D01*
X169628095Y-74527976D01*
X169770952Y-74575595D01*
X170342380Y-75147023D01*
X170342380Y-74527976D01*
%TO.C,C5*%
X165083333Y-75797142D02*
X165035714Y-75844761D01*
X164892857Y-75892380D01*
X164797619Y-75892380D01*
X164654761Y-75844761D01*
X164559523Y-75749523D01*
X164511904Y-75654285D01*
X164464285Y-75463809D01*
X164464285Y-75320952D01*
X164511904Y-75130476D01*
X164559523Y-75035238D01*
X164654761Y-74940000D01*
X164797619Y-74892380D01*
X164892857Y-74892380D01*
X165035714Y-74940000D01*
X165083333Y-74987619D01*
X165988095Y-74892380D02*
X165511904Y-74892380D01*
X165464285Y-75368571D01*
X165511904Y-75320952D01*
X165607142Y-75273333D01*
X165845238Y-75273333D01*
X165940476Y-75320952D01*
X165988095Y-75368571D01*
X166035714Y-75463809D01*
X166035714Y-75701904D01*
X165988095Y-75797142D01*
X165940476Y-75844761D01*
X165845238Y-75892380D01*
X165607142Y-75892380D01*
X165511904Y-75844761D01*
X165464285Y-75797142D01*
%TO.C,*%
%TO.C,SW11*%
X161580476Y-116764761D02*
X161723333Y-116812380D01*
X161961428Y-116812380D01*
X162056666Y-116764761D01*
X162104285Y-116717142D01*
X162151904Y-116621904D01*
X162151904Y-116526666D01*
X162104285Y-116431428D01*
X162056666Y-116383809D01*
X161961428Y-116336190D01*
X161770952Y-116288571D01*
X161675714Y-116240952D01*
X161628095Y-116193333D01*
X161580476Y-116098095D01*
X161580476Y-116002857D01*
X161628095Y-115907619D01*
X161675714Y-115860000D01*
X161770952Y-115812380D01*
X162009047Y-115812380D01*
X162151904Y-115860000D01*
X162485238Y-115812380D02*
X162723333Y-116812380D01*
X162913809Y-116098095D01*
X163104285Y-116812380D01*
X163342380Y-115812380D01*
X164247142Y-116812380D02*
X163675714Y-116812380D01*
X163961428Y-116812380D02*
X163961428Y-115812380D01*
X163866190Y-115955238D01*
X163770952Y-116050476D01*
X163675714Y-116098095D01*
X165199523Y-116812380D02*
X164628095Y-116812380D01*
X164913809Y-116812380D02*
X164913809Y-115812380D01*
X164818571Y-115955238D01*
X164723333Y-116050476D01*
X164628095Y-116098095D01*
%TO.C,*%
%TO.C,SW13*%
X161580476Y-154864761D02*
X161723333Y-154912380D01*
X161961428Y-154912380D01*
X162056666Y-154864761D01*
X162104285Y-154817142D01*
X162151904Y-154721904D01*
X162151904Y-154626666D01*
X162104285Y-154531428D01*
X162056666Y-154483809D01*
X161961428Y-154436190D01*
X161770952Y-154388571D01*
X161675714Y-154340952D01*
X161628095Y-154293333D01*
X161580476Y-154198095D01*
X161580476Y-154102857D01*
X161628095Y-154007619D01*
X161675714Y-153960000D01*
X161770952Y-153912380D01*
X162009047Y-153912380D01*
X162151904Y-153960000D01*
X162485238Y-153912380D02*
X162723333Y-154912380D01*
X162913809Y-154198095D01*
X163104285Y-154912380D01*
X163342380Y-153912380D01*
X164247142Y-154912380D02*
X163675714Y-154912380D01*
X163961428Y-154912380D02*
X163961428Y-153912380D01*
X163866190Y-154055238D01*
X163770952Y-154150476D01*
X163675714Y-154198095D01*
X164580476Y-153912380D02*
X165199523Y-153912380D01*
X164866190Y-154293333D01*
X165009047Y-154293333D01*
X165104285Y-154340952D01*
X165151904Y-154388571D01*
X165199523Y-154483809D01*
X165199523Y-154721904D01*
X165151904Y-154817142D01*
X165104285Y-154864761D01*
X165009047Y-154912380D01*
X164723333Y-154912380D01*
X164628095Y-154864761D01*
X164580476Y-154817142D01*
%TO.C,R6*%
X157712380Y-90596666D02*
X157236190Y-90930000D01*
X157712380Y-91168095D02*
X156712380Y-91168095D01*
X156712380Y-90787142D01*
X156760000Y-90691904D01*
X156807619Y-90644285D01*
X156902857Y-90596666D01*
X157045714Y-90596666D01*
X157140952Y-90644285D01*
X157188571Y-90691904D01*
X157236190Y-90787142D01*
X157236190Y-91168095D01*
X156712380Y-89739523D02*
X156712380Y-89930000D01*
X156760000Y-90025238D01*
X156807619Y-90072857D01*
X156950476Y-90168095D01*
X157140952Y-90215714D01*
X157521904Y-90215714D01*
X157617142Y-90168095D01*
X157664761Y-90120476D01*
X157712380Y-90025238D01*
X157712380Y-89834761D01*
X157664761Y-89739523D01*
X157617142Y-89691904D01*
X157521904Y-89644285D01*
X157283809Y-89644285D01*
X157188571Y-89691904D01*
X157140952Y-89739523D01*
X157093333Y-89834761D01*
X157093333Y-90025238D01*
X157140952Y-90120476D01*
X157188571Y-90168095D01*
X157283809Y-90215714D01*
%TO.C,*%
%TO.C,D8*%
X154452380Y-159058095D02*
X153452380Y-159058095D01*
X153452380Y-158820000D01*
X153500000Y-158677142D01*
X153595238Y-158581904D01*
X153690476Y-158534285D01*
X153880952Y-158486666D01*
X154023809Y-158486666D01*
X154214285Y-158534285D01*
X154309523Y-158581904D01*
X154404761Y-158677142D01*
X154452380Y-158820000D01*
X154452380Y-159058095D01*
X153880952Y-157915238D02*
X153833333Y-158010476D01*
X153785714Y-158058095D01*
X153690476Y-158105714D01*
X153642857Y-158105714D01*
X153547619Y-158058095D01*
X153500000Y-158010476D01*
X153452380Y-157915238D01*
X153452380Y-157724761D01*
X153500000Y-157629523D01*
X153547619Y-157581904D01*
X153642857Y-157534285D01*
X153690476Y-157534285D01*
X153785714Y-157581904D01*
X153833333Y-157629523D01*
X153880952Y-157724761D01*
X153880952Y-157915238D01*
X153928571Y-158010476D01*
X153976190Y-158058095D01*
X154071428Y-158105714D01*
X154261904Y-158105714D01*
X154357142Y-158058095D01*
X154404761Y-158010476D01*
X154452380Y-157915238D01*
X154452380Y-157724761D01*
X154404761Y-157629523D01*
X154357142Y-157581904D01*
X154261904Y-157534285D01*
X154071428Y-157534285D01*
X153976190Y-157581904D01*
X153928571Y-157629523D01*
X153880952Y-157724761D01*
%TO.C,C7*%
X158067142Y-77716666D02*
X158114761Y-77764285D01*
X158162380Y-77907142D01*
X158162380Y-78002380D01*
X158114761Y-78145238D01*
X158019523Y-78240476D01*
X157924285Y-78288095D01*
X157733809Y-78335714D01*
X157590952Y-78335714D01*
X157400476Y-78288095D01*
X157305238Y-78240476D01*
X157210000Y-78145238D01*
X157162380Y-78002380D01*
X157162380Y-77907142D01*
X157210000Y-77764285D01*
X157257619Y-77716666D01*
X157162380Y-77383333D02*
X157162380Y-76716666D01*
X158162380Y-77145238D01*
%TO.C,SW3*%
X123956666Y-135814761D02*
X124099523Y-135862380D01*
X124337619Y-135862380D01*
X124432857Y-135814761D01*
X124480476Y-135767142D01*
X124528095Y-135671904D01*
X124528095Y-135576666D01*
X124480476Y-135481428D01*
X124432857Y-135433809D01*
X124337619Y-135386190D01*
X124147142Y-135338571D01*
X124051904Y-135290952D01*
X124004285Y-135243333D01*
X123956666Y-135148095D01*
X123956666Y-135052857D01*
X124004285Y-134957619D01*
X124051904Y-134910000D01*
X124147142Y-134862380D01*
X124385238Y-134862380D01*
X124528095Y-134910000D01*
X124861428Y-134862380D02*
X125099523Y-135862380D01*
X125290000Y-135148095D01*
X125480476Y-135862380D01*
X125718571Y-134862380D01*
X126004285Y-134862380D02*
X126623333Y-134862380D01*
X126290000Y-135243333D01*
X126432857Y-135243333D01*
X126528095Y-135290952D01*
X126575714Y-135338571D01*
X126623333Y-135433809D01*
X126623333Y-135671904D01*
X126575714Y-135767142D01*
X126528095Y-135814761D01*
X126432857Y-135862380D01*
X126147142Y-135862380D01*
X126051904Y-135814761D01*
X126004285Y-135767142D01*
%TO.C,D13*%
X192562380Y-102584285D02*
X191562380Y-102584285D01*
X191562380Y-102346190D01*
X191610000Y-102203333D01*
X191705238Y-102108095D01*
X191800476Y-102060476D01*
X191990952Y-102012857D01*
X192133809Y-102012857D01*
X192324285Y-102060476D01*
X192419523Y-102108095D01*
X192514761Y-102203333D01*
X192562380Y-102346190D01*
X192562380Y-102584285D01*
X192562380Y-101060476D02*
X192562380Y-101631904D01*
X192562380Y-101346190D02*
X191562380Y-101346190D01*
X191705238Y-101441428D01*
X191800476Y-101536666D01*
X191848095Y-101631904D01*
X191562380Y-100727142D02*
X191562380Y-100108095D01*
X191943333Y-100441428D01*
X191943333Y-100298571D01*
X191990952Y-100203333D01*
X192038571Y-100155714D01*
X192133809Y-100108095D01*
X192371904Y-100108095D01*
X192467142Y-100155714D01*
X192514761Y-100203333D01*
X192562380Y-100298571D01*
X192562380Y-100584285D01*
X192514761Y-100679523D01*
X192467142Y-100727142D01*
%TO.C,SW12*%
X161580476Y-135814761D02*
X161723333Y-135862380D01*
X161961428Y-135862380D01*
X162056666Y-135814761D01*
X162104285Y-135767142D01*
X162151904Y-135671904D01*
X162151904Y-135576666D01*
X162104285Y-135481428D01*
X162056666Y-135433809D01*
X161961428Y-135386190D01*
X161770952Y-135338571D01*
X161675714Y-135290952D01*
X161628095Y-135243333D01*
X161580476Y-135148095D01*
X161580476Y-135052857D01*
X161628095Y-134957619D01*
X161675714Y-134910000D01*
X161770952Y-134862380D01*
X162009047Y-134862380D01*
X162151904Y-134910000D01*
X162485238Y-134862380D02*
X162723333Y-135862380D01*
X162913809Y-135148095D01*
X163104285Y-135862380D01*
X163342380Y-134862380D01*
X164247142Y-135862380D02*
X163675714Y-135862380D01*
X163961428Y-135862380D02*
X163961428Y-134862380D01*
X163866190Y-135005238D01*
X163770952Y-135100476D01*
X163675714Y-135148095D01*
X164628095Y-134957619D02*
X164675714Y-134910000D01*
X164770952Y-134862380D01*
X165009047Y-134862380D01*
X165104285Y-134910000D01*
X165151904Y-134957619D01*
X165199523Y-135052857D01*
X165199523Y-135148095D01*
X165151904Y-135290952D01*
X164580476Y-135862380D01*
X165199523Y-135862380D01*
%TO.C,SW7*%
X143006666Y-116764761D02*
X143149523Y-116812380D01*
X143387619Y-116812380D01*
X143482857Y-116764761D01*
X143530476Y-116717142D01*
X143578095Y-116621904D01*
X143578095Y-116526666D01*
X143530476Y-116431428D01*
X143482857Y-116383809D01*
X143387619Y-116336190D01*
X143197142Y-116288571D01*
X143101904Y-116240952D01*
X143054285Y-116193333D01*
X143006666Y-116098095D01*
X143006666Y-116002857D01*
X143054285Y-115907619D01*
X143101904Y-115860000D01*
X143197142Y-115812380D01*
X143435238Y-115812380D01*
X143578095Y-115860000D01*
X143911428Y-115812380D02*
X144149523Y-116812380D01*
X144340000Y-116098095D01*
X144530476Y-116812380D01*
X144768571Y-115812380D01*
X145054285Y-115812380D02*
X145720952Y-115812380D01*
X145292380Y-116812380D01*
%TO.C,*%
%TO.C,U5*%
X175318095Y-86282380D02*
X175318095Y-87091904D01*
X175365714Y-87187142D01*
X175413333Y-87234761D01*
X175508571Y-87282380D01*
X175699047Y-87282380D01*
X175794285Y-87234761D01*
X175841904Y-87187142D01*
X175889523Y-87091904D01*
X175889523Y-86282380D01*
X176841904Y-86282380D02*
X176365714Y-86282380D01*
X176318095Y-86758571D01*
X176365714Y-86710952D01*
X176460952Y-86663333D01*
X176699047Y-86663333D01*
X176794285Y-86710952D01*
X176841904Y-86758571D01*
X176889523Y-86853809D01*
X176889523Y-87091904D01*
X176841904Y-87187142D01*
X176794285Y-87234761D01*
X176699047Y-87282380D01*
X176460952Y-87282380D01*
X176365714Y-87234761D01*
X176318095Y-87187142D01*
%TO.C,D5*%
X154471880Y-101512595D02*
X153471880Y-101512595D01*
X153471880Y-101274500D01*
X153519500Y-101131642D01*
X153614738Y-101036404D01*
X153709976Y-100988785D01*
X153900452Y-100941166D01*
X154043309Y-100941166D01*
X154233785Y-100988785D01*
X154329023Y-101036404D01*
X154424261Y-101131642D01*
X154471880Y-101274500D01*
X154471880Y-101512595D01*
X153471880Y-100036404D02*
X153471880Y-100512595D01*
X153948071Y-100560214D01*
X153900452Y-100512595D01*
X153852833Y-100417357D01*
X153852833Y-100179261D01*
X153900452Y-100084023D01*
X153948071Y-100036404D01*
X154043309Y-99988785D01*
X154281404Y-99988785D01*
X154376642Y-100036404D01*
X154424261Y-100084023D01*
X154471880Y-100179261D01*
X154471880Y-100417357D01*
X154424261Y-100512595D01*
X154376642Y-100560214D01*
%TO.C,SW18*%
X180630476Y-154864761D02*
X180773333Y-154912380D01*
X181011428Y-154912380D01*
X181106666Y-154864761D01*
X181154285Y-154817142D01*
X181201904Y-154721904D01*
X181201904Y-154626666D01*
X181154285Y-154531428D01*
X181106666Y-154483809D01*
X181011428Y-154436190D01*
X180820952Y-154388571D01*
X180725714Y-154340952D01*
X180678095Y-154293333D01*
X180630476Y-154198095D01*
X180630476Y-154102857D01*
X180678095Y-154007619D01*
X180725714Y-153960000D01*
X180820952Y-153912380D01*
X181059047Y-153912380D01*
X181201904Y-153960000D01*
X181535238Y-153912380D02*
X181773333Y-154912380D01*
X181963809Y-154198095D01*
X182154285Y-154912380D01*
X182392380Y-153912380D01*
X183297142Y-154912380D02*
X182725714Y-154912380D01*
X183011428Y-154912380D02*
X183011428Y-153912380D01*
X182916190Y-154055238D01*
X182820952Y-154150476D01*
X182725714Y-154198095D01*
X183868571Y-154340952D02*
X183773333Y-154293333D01*
X183725714Y-154245714D01*
X183678095Y-154150476D01*
X183678095Y-154102857D01*
X183725714Y-154007619D01*
X183773333Y-153960000D01*
X183868571Y-153912380D01*
X184059047Y-153912380D01*
X184154285Y-153960000D01*
X184201904Y-154007619D01*
X184249523Y-154102857D01*
X184249523Y-154150476D01*
X184201904Y-154245714D01*
X184154285Y-154293333D01*
X184059047Y-154340952D01*
X183868571Y-154340952D01*
X183773333Y-154388571D01*
X183725714Y-154436190D01*
X183678095Y-154531428D01*
X183678095Y-154721904D01*
X183725714Y-154817142D01*
X183773333Y-154864761D01*
X183868571Y-154912380D01*
X184059047Y-154912380D01*
X184154285Y-154864761D01*
X184201904Y-154817142D01*
X184249523Y-154721904D01*
X184249523Y-154531428D01*
X184201904Y-154436190D01*
X184154285Y-154388571D01*
X184059047Y-154340952D01*
%TO.C,SW2*%
X123956666Y-116764761D02*
X124099523Y-116812380D01*
X124337619Y-116812380D01*
X124432857Y-116764761D01*
X124480476Y-116717142D01*
X124528095Y-116621904D01*
X124528095Y-116526666D01*
X124480476Y-116431428D01*
X124432857Y-116383809D01*
X124337619Y-116336190D01*
X124147142Y-116288571D01*
X124051904Y-116240952D01*
X124004285Y-116193333D01*
X123956666Y-116098095D01*
X123956666Y-116002857D01*
X124004285Y-115907619D01*
X124051904Y-115860000D01*
X124147142Y-115812380D01*
X124385238Y-115812380D01*
X124528095Y-115860000D01*
X124861428Y-115812380D02*
X125099523Y-116812380D01*
X125290000Y-116098095D01*
X125480476Y-116812380D01*
X125718571Y-115812380D01*
X126051904Y-115907619D02*
X126099523Y-115860000D01*
X126194761Y-115812380D01*
X126432857Y-115812380D01*
X126528095Y-115860000D01*
X126575714Y-115907619D01*
X126623333Y-116002857D01*
X126623333Y-116098095D01*
X126575714Y-116240952D01*
X126004285Y-116812380D01*
X126623333Y-116812380D01*
%TO.C,D10*%
X173522380Y-121884285D02*
X172522380Y-121884285D01*
X172522380Y-121646190D01*
X172570000Y-121503333D01*
X172665238Y-121408095D01*
X172760476Y-121360476D01*
X172950952Y-121312857D01*
X173093809Y-121312857D01*
X173284285Y-121360476D01*
X173379523Y-121408095D01*
X173474761Y-121503333D01*
X173522380Y-121646190D01*
X173522380Y-121884285D01*
X173522380Y-120360476D02*
X173522380Y-120931904D01*
X173522380Y-120646190D02*
X172522380Y-120646190D01*
X172665238Y-120741428D01*
X172760476Y-120836666D01*
X172808095Y-120931904D01*
X172522380Y-119741428D02*
X172522380Y-119646190D01*
X172570000Y-119550952D01*
X172617619Y-119503333D01*
X172712857Y-119455714D01*
X172903333Y-119408095D01*
X173141428Y-119408095D01*
X173331904Y-119455714D01*
X173427142Y-119503333D01*
X173474761Y-119550952D01*
X173522380Y-119646190D01*
X173522380Y-119741428D01*
X173474761Y-119836666D01*
X173427142Y-119884285D01*
X173331904Y-119931904D01*
X173141428Y-119979523D01*
X172903333Y-119979523D01*
X172712857Y-119931904D01*
X172617619Y-119884285D01*
X172570000Y-119836666D01*
X172522380Y-119741428D01*
%TO.C,*%
%TO.C,SW15*%
X180630476Y-97714761D02*
X180773333Y-97762380D01*
X181011428Y-97762380D01*
X181106666Y-97714761D01*
X181154285Y-97667142D01*
X181201904Y-97571904D01*
X181201904Y-97476666D01*
X181154285Y-97381428D01*
X181106666Y-97333809D01*
X181011428Y-97286190D01*
X180820952Y-97238571D01*
X180725714Y-97190952D01*
X180678095Y-97143333D01*
X180630476Y-97048095D01*
X180630476Y-96952857D01*
X180678095Y-96857619D01*
X180725714Y-96810000D01*
X180820952Y-96762380D01*
X181059047Y-96762380D01*
X181201904Y-96810000D01*
X181535238Y-96762380D02*
X181773333Y-97762380D01*
X181963809Y-97048095D01*
X182154285Y-97762380D01*
X182392380Y-96762380D01*
X183297142Y-97762380D02*
X182725714Y-97762380D01*
X183011428Y-97762380D02*
X183011428Y-96762380D01*
X182916190Y-96905238D01*
X182820952Y-97000476D01*
X182725714Y-97048095D01*
X184201904Y-96762380D02*
X183725714Y-96762380D01*
X183678095Y-97238571D01*
X183725714Y-97190952D01*
X183820952Y-97143333D01*
X184059047Y-97143333D01*
X184154285Y-97190952D01*
X184201904Y-97238571D01*
X184249523Y-97333809D01*
X184249523Y-97571904D01*
X184201904Y-97667142D01*
X184154285Y-97714761D01*
X184059047Y-97762380D01*
X183820952Y-97762380D01*
X183725714Y-97714761D01*
X183678095Y-97667142D01*
%TO.C,SW4*%
X123956666Y-154864761D02*
X124099523Y-154912380D01*
X124337619Y-154912380D01*
X124432857Y-154864761D01*
X124480476Y-154817142D01*
X124528095Y-154721904D01*
X124528095Y-154626666D01*
X124480476Y-154531428D01*
X124432857Y-154483809D01*
X124337619Y-154436190D01*
X124147142Y-154388571D01*
X124051904Y-154340952D01*
X124004285Y-154293333D01*
X123956666Y-154198095D01*
X123956666Y-154102857D01*
X124004285Y-154007619D01*
X124051904Y-153960000D01*
X124147142Y-153912380D01*
X124385238Y-153912380D01*
X124528095Y-153960000D01*
X124861428Y-153912380D02*
X125099523Y-154912380D01*
X125290000Y-154198095D01*
X125480476Y-154912380D01*
X125718571Y-153912380D01*
X126528095Y-154245714D02*
X126528095Y-154912380D01*
X126290000Y-153864761D02*
X126051904Y-154579047D01*
X126670952Y-154579047D01*
%TO.C,SW8*%
X143006666Y-135814761D02*
X143149523Y-135862380D01*
X143387619Y-135862380D01*
X143482857Y-135814761D01*
X143530476Y-135767142D01*
X143578095Y-135671904D01*
X143578095Y-135576666D01*
X143530476Y-135481428D01*
X143482857Y-135433809D01*
X143387619Y-135386190D01*
X143197142Y-135338571D01*
X143101904Y-135290952D01*
X143054285Y-135243333D01*
X143006666Y-135148095D01*
X143006666Y-135052857D01*
X143054285Y-134957619D01*
X143101904Y-134910000D01*
X143197142Y-134862380D01*
X143435238Y-134862380D01*
X143578095Y-134910000D01*
X143911428Y-134862380D02*
X144149523Y-135862380D01*
X144340000Y-135148095D01*
X144530476Y-135862380D01*
X144768571Y-134862380D01*
X145292380Y-135290952D02*
X145197142Y-135243333D01*
X145149523Y-135195714D01*
X145101904Y-135100476D01*
X145101904Y-135052857D01*
X145149523Y-134957619D01*
X145197142Y-134910000D01*
X145292380Y-134862380D01*
X145482857Y-134862380D01*
X145578095Y-134910000D01*
X145625714Y-134957619D01*
X145673333Y-135052857D01*
X145673333Y-135100476D01*
X145625714Y-135195714D01*
X145578095Y-135243333D01*
X145482857Y-135290952D01*
X145292380Y-135290952D01*
X145197142Y-135338571D01*
X145149523Y-135386190D01*
X145101904Y-135481428D01*
X145101904Y-135671904D01*
X145149523Y-135767142D01*
X145197142Y-135814761D01*
X145292380Y-135862380D01*
X145482857Y-135862380D01*
X145578095Y-135814761D01*
X145625714Y-135767142D01*
X145673333Y-135671904D01*
X145673333Y-135481428D01*
X145625714Y-135386190D01*
X145578095Y-135338571D01*
X145482857Y-135290952D01*
%TO.C,D9*%
X173521880Y-101648095D02*
X172521880Y-101648095D01*
X172521880Y-101410000D01*
X172569500Y-101267142D01*
X172664738Y-101171904D01*
X172759976Y-101124285D01*
X172950452Y-101076666D01*
X173093309Y-101076666D01*
X173283785Y-101124285D01*
X173379023Y-101171904D01*
X173474261Y-101267142D01*
X173521880Y-101410000D01*
X173521880Y-101648095D01*
X173521880Y-100600476D02*
X173521880Y-100410000D01*
X173474261Y-100314761D01*
X173426642Y-100267142D01*
X173283785Y-100171904D01*
X173093309Y-100124285D01*
X172712357Y-100124285D01*
X172617119Y-100171904D01*
X172569500Y-100219523D01*
X172521880Y-100314761D01*
X172521880Y-100505238D01*
X172569500Y-100600476D01*
X172617119Y-100648095D01*
X172712357Y-100695714D01*
X172950452Y-100695714D01*
X173045690Y-100648095D01*
X173093309Y-100600476D01*
X173140928Y-100505238D01*
X173140928Y-100314761D01*
X173093309Y-100219523D01*
X173045690Y-100171904D01*
X172950452Y-100124285D01*
%TO.C,*%
%TO.C,R2*%
X160602380Y-74606666D02*
X160126190Y-74940000D01*
X160602380Y-75178095D02*
X159602380Y-75178095D01*
X159602380Y-74797142D01*
X159650000Y-74701904D01*
X159697619Y-74654285D01*
X159792857Y-74606666D01*
X159935714Y-74606666D01*
X160030952Y-74654285D01*
X160078571Y-74701904D01*
X160126190Y-74797142D01*
X160126190Y-75178095D01*
X159697619Y-74225714D02*
X159650000Y-74178095D01*
X159602380Y-74082857D01*
X159602380Y-73844761D01*
X159650000Y-73749523D01*
X159697619Y-73701904D01*
X159792857Y-73654285D01*
X159888095Y-73654285D01*
X160030952Y-73701904D01*
X160602380Y-74273333D01*
X160602380Y-73654285D01*
%TO.C,C15*%
X156697142Y-94292857D02*
X156744761Y-94340476D01*
X156792380Y-94483333D01*
X156792380Y-94578571D01*
X156744761Y-94721428D01*
X156649523Y-94816666D01*
X156554285Y-94864285D01*
X156363809Y-94911904D01*
X156220952Y-94911904D01*
X156030476Y-94864285D01*
X155935238Y-94816666D01*
X155840000Y-94721428D01*
X155792380Y-94578571D01*
X155792380Y-94483333D01*
X155840000Y-94340476D01*
X155887619Y-94292857D01*
X156792380Y-93340476D02*
X156792380Y-93911904D01*
X156792380Y-93626190D02*
X155792380Y-93626190D01*
X155935238Y-93721428D01*
X156030476Y-93816666D01*
X156078095Y-93911904D01*
X155792380Y-92435714D02*
X155792380Y-92911904D01*
X156268571Y-92959523D01*
X156220952Y-92911904D01*
X156173333Y-92816666D01*
X156173333Y-92578571D01*
X156220952Y-92483333D01*
X156268571Y-92435714D01*
X156363809Y-92388095D01*
X156601904Y-92388095D01*
X156697142Y-92435714D01*
X156744761Y-92483333D01*
X156792380Y-92578571D01*
X156792380Y-92816666D01*
X156744761Y-92911904D01*
X156697142Y-92959523D01*
%TO.C,R8*%
X152253333Y-70502380D02*
X151920000Y-70026190D01*
X151681904Y-70502380D02*
X151681904Y-69502380D01*
X152062857Y-69502380D01*
X152158095Y-69550000D01*
X152205714Y-69597619D01*
X152253333Y-69692857D01*
X152253333Y-69835714D01*
X152205714Y-69930952D01*
X152158095Y-69978571D01*
X152062857Y-70026190D01*
X151681904Y-70026190D01*
X152824761Y-69930952D02*
X152729523Y-69883333D01*
X152681904Y-69835714D01*
X152634285Y-69740476D01*
X152634285Y-69692857D01*
X152681904Y-69597619D01*
X152729523Y-69550000D01*
X152824761Y-69502380D01*
X153015238Y-69502380D01*
X153110476Y-69550000D01*
X153158095Y-69597619D01*
X153205714Y-69692857D01*
X153205714Y-69740476D01*
X153158095Y-69835714D01*
X153110476Y-69883333D01*
X153015238Y-69930952D01*
X152824761Y-69930952D01*
X152729523Y-69978571D01*
X152681904Y-70026190D01*
X152634285Y-70121428D01*
X152634285Y-70311904D01*
X152681904Y-70407142D01*
X152729523Y-70454761D01*
X152824761Y-70502380D01*
X153015238Y-70502380D01*
X153110476Y-70454761D01*
X153158095Y-70407142D01*
X153205714Y-70311904D01*
X153205714Y-70121428D01*
X153158095Y-70026190D01*
X153110476Y-69978571D01*
X153015238Y-69930952D01*
%TO.C,C16*%
X156577142Y-73277142D02*
X156529523Y-73324761D01*
X156386666Y-73372380D01*
X156291428Y-73372380D01*
X156148571Y-73324761D01*
X156053333Y-73229523D01*
X156005714Y-73134285D01*
X155958095Y-72943809D01*
X155958095Y-72800952D01*
X156005714Y-72610476D01*
X156053333Y-72515238D01*
X156148571Y-72420000D01*
X156291428Y-72372380D01*
X156386666Y-72372380D01*
X156529523Y-72420000D01*
X156577142Y-72467619D01*
X157529523Y-73372380D02*
X156958095Y-73372380D01*
X157243809Y-73372380D02*
X157243809Y-72372380D01*
X157148571Y-72515238D01*
X157053333Y-72610476D01*
X156958095Y-72658095D01*
X158386666Y-72372380D02*
X158196190Y-72372380D01*
X158100952Y-72420000D01*
X158053333Y-72467619D01*
X157958095Y-72610476D01*
X157910476Y-72800952D01*
X157910476Y-73181904D01*
X157958095Y-73277142D01*
X158005714Y-73324761D01*
X158100952Y-73372380D01*
X158291428Y-73372380D01*
X158386666Y-73324761D01*
X158434285Y-73277142D01*
X158481904Y-73181904D01*
X158481904Y-72943809D01*
X158434285Y-72848571D01*
X158386666Y-72800952D01*
X158291428Y-72753333D01*
X158100952Y-72753333D01*
X158005714Y-72800952D01*
X157958095Y-72848571D01*
X157910476Y-72943809D01*
%TO.C,*%
%TO.C,C2*%
X176277142Y-75976666D02*
X176324761Y-76024285D01*
X176372380Y-76167142D01*
X176372380Y-76262380D01*
X176324761Y-76405238D01*
X176229523Y-76500476D01*
X176134285Y-76548095D01*
X175943809Y-76595714D01*
X175800952Y-76595714D01*
X175610476Y-76548095D01*
X175515238Y-76500476D01*
X175420000Y-76405238D01*
X175372380Y-76262380D01*
X175372380Y-76167142D01*
X175420000Y-76024285D01*
X175467619Y-75976666D01*
X175467619Y-75595714D02*
X175420000Y-75548095D01*
X175372380Y-75452857D01*
X175372380Y-75214761D01*
X175420000Y-75119523D01*
X175467619Y-75071904D01*
X175562857Y-75024285D01*
X175658095Y-75024285D01*
X175800952Y-75071904D01*
X176372380Y-75643333D01*
X176372380Y-75024285D01*
%TO.C,*%
%TO.C,C1*%
X176277142Y-71716666D02*
X176324761Y-71764285D01*
X176372380Y-71907142D01*
X176372380Y-72002380D01*
X176324761Y-72145238D01*
X176229523Y-72240476D01*
X176134285Y-72288095D01*
X175943809Y-72335714D01*
X175800952Y-72335714D01*
X175610476Y-72288095D01*
X175515238Y-72240476D01*
X175420000Y-72145238D01*
X175372380Y-72002380D01*
X175372380Y-71907142D01*
X175420000Y-71764285D01*
X175467619Y-71716666D01*
X176372380Y-70764285D02*
X176372380Y-71335714D01*
X176372380Y-71050000D02*
X175372380Y-71050000D01*
X175515238Y-71145238D01*
X175610476Y-71240476D01*
X175658095Y-71335714D01*
%TO.C,C10*%
X163307142Y-82617142D02*
X163259523Y-82664761D01*
X163116666Y-82712380D01*
X163021428Y-82712380D01*
X162878571Y-82664761D01*
X162783333Y-82569523D01*
X162735714Y-82474285D01*
X162688095Y-82283809D01*
X162688095Y-82140952D01*
X162735714Y-81950476D01*
X162783333Y-81855238D01*
X162878571Y-81760000D01*
X163021428Y-81712380D01*
X163116666Y-81712380D01*
X163259523Y-81760000D01*
X163307142Y-81807619D01*
X164259523Y-82712380D02*
X163688095Y-82712380D01*
X163973809Y-82712380D02*
X163973809Y-81712380D01*
X163878571Y-81855238D01*
X163783333Y-81950476D01*
X163688095Y-81998095D01*
X164878571Y-81712380D02*
X164973809Y-81712380D01*
X165069047Y-81760000D01*
X165116666Y-81807619D01*
X165164285Y-81902857D01*
X165211904Y-82093333D01*
X165211904Y-82331428D01*
X165164285Y-82521904D01*
X165116666Y-82617142D01*
X165069047Y-82664761D01*
X164973809Y-82712380D01*
X164878571Y-82712380D01*
X164783333Y-82664761D01*
X164735714Y-82617142D01*
X164688095Y-82521904D01*
X164640476Y-82331428D01*
X164640476Y-82093333D01*
X164688095Y-81902857D01*
X164735714Y-81807619D01*
X164783333Y-81760000D01*
X164878571Y-81712380D01*
%TO.C,C13*%
X148847142Y-80557142D02*
X148799523Y-80604761D01*
X148656666Y-80652380D01*
X148561428Y-80652380D01*
X148418571Y-80604761D01*
X148323333Y-80509523D01*
X148275714Y-80414285D01*
X148228095Y-80223809D01*
X148228095Y-80080952D01*
X148275714Y-79890476D01*
X148323333Y-79795238D01*
X148418571Y-79700000D01*
X148561428Y-79652380D01*
X148656666Y-79652380D01*
X148799523Y-79700000D01*
X148847142Y-79747619D01*
X149799523Y-80652380D02*
X149228095Y-80652380D01*
X149513809Y-80652380D02*
X149513809Y-79652380D01*
X149418571Y-79795238D01*
X149323333Y-79890476D01*
X149228095Y-79938095D01*
X150132857Y-79652380D02*
X150751904Y-79652380D01*
X150418571Y-80033333D01*
X150561428Y-80033333D01*
X150656666Y-80080952D01*
X150704285Y-80128571D01*
X150751904Y-80223809D01*
X150751904Y-80461904D01*
X150704285Y-80557142D01*
X150656666Y-80604761D01*
X150561428Y-80652380D01*
X150275714Y-80652380D01*
X150180476Y-80604761D01*
X150132857Y-80557142D01*
%TO.C,F1*%
X167876666Y-70408571D02*
X167543333Y-70408571D01*
X167543333Y-70932380D02*
X167543333Y-69932380D01*
X168019523Y-69932380D01*
X168924285Y-70932380D02*
X168352857Y-70932380D01*
X168638571Y-70932380D02*
X168638571Y-69932380D01*
X168543333Y-70075238D01*
X168448095Y-70170476D01*
X168352857Y-70218095D01*
%TO.C,SW16*%
X180630476Y-116764761D02*
X180773333Y-116812380D01*
X181011428Y-116812380D01*
X181106666Y-116764761D01*
X181154285Y-116717142D01*
X181201904Y-116621904D01*
X181201904Y-116526666D01*
X181154285Y-116431428D01*
X181106666Y-116383809D01*
X181011428Y-116336190D01*
X180820952Y-116288571D01*
X180725714Y-116240952D01*
X180678095Y-116193333D01*
X180630476Y-116098095D01*
X180630476Y-116002857D01*
X180678095Y-115907619D01*
X180725714Y-115860000D01*
X180820952Y-115812380D01*
X181059047Y-115812380D01*
X181201904Y-115860000D01*
X181535238Y-115812380D02*
X181773333Y-116812380D01*
X181963809Y-116098095D01*
X182154285Y-116812380D01*
X182392380Y-115812380D01*
X183297142Y-116812380D02*
X182725714Y-116812380D01*
X183011428Y-116812380D02*
X183011428Y-115812380D01*
X182916190Y-115955238D01*
X182820952Y-116050476D01*
X182725714Y-116098095D01*
X184154285Y-115812380D02*
X183963809Y-115812380D01*
X183868571Y-115860000D01*
X183820952Y-115907619D01*
X183725714Y-116050476D01*
X183678095Y-116240952D01*
X183678095Y-116621904D01*
X183725714Y-116717142D01*
X183773333Y-116764761D01*
X183868571Y-116812380D01*
X184059047Y-116812380D01*
X184154285Y-116764761D01*
X184201904Y-116717142D01*
X184249523Y-116621904D01*
X184249523Y-116383809D01*
X184201904Y-116288571D01*
X184154285Y-116240952D01*
X184059047Y-116193333D01*
X183868571Y-116193333D01*
X183773333Y-116240952D01*
X183725714Y-116288571D01*
X183678095Y-116383809D01*
%TO.C,R1*%
X140472380Y-82906666D02*
X139996190Y-83240000D01*
X140472380Y-83478095D02*
X139472380Y-83478095D01*
X139472380Y-83097142D01*
X139520000Y-83001904D01*
X139567619Y-82954285D01*
X139662857Y-82906666D01*
X139805714Y-82906666D01*
X139900952Y-82954285D01*
X139948571Y-83001904D01*
X139996190Y-83097142D01*
X139996190Y-83478095D01*
X140472380Y-81954285D02*
X140472380Y-82525714D01*
X140472380Y-82240000D02*
X139472380Y-82240000D01*
X139615238Y-82335238D01*
X139710476Y-82430476D01*
X139758095Y-82525714D01*
%TO.C,*%
%TO.C,D2*%
X135422380Y-120898095D02*
X134422380Y-120898095D01*
X134422380Y-120660000D01*
X134470000Y-120517142D01*
X134565238Y-120421904D01*
X134660476Y-120374285D01*
X134850952Y-120326666D01*
X134993809Y-120326666D01*
X135184285Y-120374285D01*
X135279523Y-120421904D01*
X135374761Y-120517142D01*
X135422380Y-120660000D01*
X135422380Y-120898095D01*
X134517619Y-119945714D02*
X134470000Y-119898095D01*
X134422380Y-119802857D01*
X134422380Y-119564761D01*
X134470000Y-119469523D01*
X134517619Y-119421904D01*
X134612857Y-119374285D01*
X134708095Y-119374285D01*
X134850952Y-119421904D01*
X135422380Y-119993333D01*
X135422380Y-119374285D01*
%TO.C,C4*%
X160467142Y-91026666D02*
X160514761Y-91074285D01*
X160562380Y-91217142D01*
X160562380Y-91312380D01*
X160514761Y-91455238D01*
X160419523Y-91550476D01*
X160324285Y-91598095D01*
X160133809Y-91645714D01*
X159990952Y-91645714D01*
X159800476Y-91598095D01*
X159705238Y-91550476D01*
X159610000Y-91455238D01*
X159562380Y-91312380D01*
X159562380Y-91217142D01*
X159610000Y-91074285D01*
X159657619Y-91026666D01*
X159895714Y-90169523D02*
X160562380Y-90169523D01*
X159514761Y-90407619D02*
X160229047Y-90645714D01*
X160229047Y-90026666D01*
%TO.C,D3*%
X135422380Y-139948095D02*
X134422380Y-139948095D01*
X134422380Y-139710000D01*
X134470000Y-139567142D01*
X134565238Y-139471904D01*
X134660476Y-139424285D01*
X134850952Y-139376666D01*
X134993809Y-139376666D01*
X135184285Y-139424285D01*
X135279523Y-139471904D01*
X135374761Y-139567142D01*
X135422380Y-139710000D01*
X135422380Y-139948095D01*
X134422380Y-139043333D02*
X134422380Y-138424285D01*
X134803333Y-138757619D01*
X134803333Y-138614761D01*
X134850952Y-138519523D01*
X134898571Y-138471904D01*
X134993809Y-138424285D01*
X135231904Y-138424285D01*
X135327142Y-138471904D01*
X135374761Y-138519523D01*
X135422380Y-138614761D01*
X135422380Y-138900476D01*
X135374761Y-138995714D01*
X135327142Y-139043333D01*
%TO.C,*%
D11*
%TO.C,FB1*%
X171900378Y-71590000D02*
X172699622Y-71590000D01*
X171900378Y-72710000D02*
X172699622Y-72710000D01*
%TO.C,Y1*%
X153110000Y-91810000D02*
X153110000Y-87810000D01*
X149810000Y-91810000D02*
X153110000Y-91810000D01*
%TO.C,D1*%
X135969500Y-103024500D02*
X137969500Y-103024500D01*
X137969500Y-103024500D02*
X137969500Y-99124500D01*
X135969500Y-103024500D02*
X135969500Y-99124500D01*
%TO.C,D15*%
X195119500Y-141124500D02*
X195119500Y-137224500D01*
X193119500Y-141124500D02*
X195119500Y-141124500D01*
X193119500Y-141124500D02*
X193119500Y-137224500D01*
%TO.C,D6*%
X155019500Y-122074500D02*
X155019500Y-118174500D01*
X155019500Y-122074500D02*
X157019500Y-122074500D01*
X157019500Y-122074500D02*
X157019500Y-118174500D01*
%TO.C,R9*%
X159100000Y-71413641D02*
X159100000Y-71106359D01*
X159860000Y-71413641D02*
X159860000Y-71106359D01*
%TO.C,R7*%
X170918859Y-78820000D02*
X171226141Y-78820000D01*
X170918859Y-79580000D02*
X171226141Y-79580000D01*
%TO.C,C8*%
X163150664Y-78507000D02*
X163366336Y-78507000D01*
X163150664Y-79227000D02*
X163366336Y-79227000D01*
%TO.C,D16*%
X193119500Y-160174500D02*
X195119500Y-160174500D01*
X193119500Y-160174500D02*
X193119500Y-156274500D01*
X195119500Y-160174500D02*
X195119500Y-156274500D01*
%TO.C,R5*%
X143926359Y-71590000D02*
X144233641Y-71590000D01*
X143926359Y-70830000D02*
X144233641Y-70830000D01*
D12*
%TO.C,U6*%
X162585003Y-62151000D02*
X162585003Y-62848219D01*
X153644997Y-62151000D02*
X153644997Y-62848574D01*
X162585003Y-65085303D02*
X162585003Y-66948219D01*
X153644997Y-65084947D02*
X153644997Y-66948574D01*
D13*
X162621046Y-69217129D02*
G75*
G03*
X162621046Y-69217129I-29998J0D01*
G01*
D11*
%TO.C,R3*%
X158397500Y-76503641D02*
X158397500Y-76196359D01*
X159157500Y-76503641D02*
X159157500Y-76196359D01*
%TO.C,C17*%
X168780000Y-82947836D02*
X168780000Y-82732164D01*
X168060000Y-82947836D02*
X168060000Y-82732164D01*
%TO.C,C14*%
X153350000Y-89222164D02*
X153350000Y-89437836D01*
X154070000Y-89222164D02*
X154070000Y-89437836D01*
D10*
%TO.C,SW1*%
X126225176Y-92309780D02*
X124675176Y-92309780D01*
X125175176Y-96359780D02*
X129740000Y-96359780D01*
X135625176Y-97959780D02*
X135625176Y-98199780D01*
X133625176Y-92309780D02*
X127725176Y-92309780D01*
X124675176Y-92309780D02*
X124675176Y-92539780D01*
X124675176Y-95389780D02*
X124675176Y-95859780D01*
X135625176Y-95109780D02*
X135625176Y-94309780D01*
X124675176Y-95859780D02*
G75*
G03*
X125175176Y-96359780I500001J1D01*
G01*
X135625170Y-94309780D02*
G75*
G03*
X133625176Y-92309780I-1999990J10D01*
G01*
X132034322Y-98199780D02*
G75*
G03*
X129740000Y-96359780I-2293456J-509332D01*
G01*
D11*
%TO.C,R4*%
X166850000Y-82676359D02*
X166850000Y-82983641D01*
X167610000Y-82676359D02*
X167610000Y-82983641D01*
%TO.C,C6*%
X162532164Y-77380000D02*
X162747836Y-77380000D01*
X162532164Y-78100000D02*
X162747836Y-78100000D01*
%TO.C,D11*%
X174069500Y-141124500D02*
X174069500Y-137224500D01*
X176069500Y-141124500D02*
X176069500Y-137224500D01*
X174069500Y-141124500D02*
X176069500Y-141124500D01*
%TO.C,C11*%
X158000000Y-88392164D02*
X158000000Y-88607836D01*
X158720000Y-88392164D02*
X158720000Y-88607836D01*
%TO.C,D4*%
X137969500Y-160174500D02*
X137969500Y-156274500D01*
X135969500Y-160174500D02*
X135969500Y-156274500D01*
X135969500Y-160174500D02*
X137969500Y-160174500D01*
%TO.C,D14*%
X193119500Y-122074500D02*
X193119500Y-118174500D01*
X193119500Y-122074500D02*
X195119500Y-122074500D01*
X195119500Y-122074500D02*
X195119500Y-118174500D01*
%TO.C,C9*%
X163150664Y-80370000D02*
X163366336Y-80370000D01*
X163150664Y-79650000D02*
X163366336Y-79650000D01*
D10*
%TO.C,SW10*%
X162775176Y-95389780D02*
X162775176Y-95859780D01*
X162775176Y-92309780D02*
X162775176Y-92539780D01*
X164325176Y-92309780D02*
X162775176Y-92309780D01*
X163275176Y-96359780D02*
X167840000Y-96359780D01*
X173725176Y-97959780D02*
X173725176Y-98199780D01*
X171725176Y-92309780D02*
X165825176Y-92309780D01*
X173725176Y-95109780D02*
X173725176Y-94309780D01*
X170134322Y-98199780D02*
G75*
G03*
X167840000Y-96359780I-2293456J-509332D01*
G01*
X173725170Y-94309780D02*
G75*
G03*
X171725176Y-92309780I-1999990J10D01*
G01*
X162775176Y-95859780D02*
G75*
G03*
X163275176Y-96359780I500001J1D01*
G01*
%TO.C,SW17*%
X192775176Y-136059780D02*
X192775176Y-136299780D01*
X182325176Y-134459780D02*
X186890000Y-134459780D01*
X183375176Y-130409780D02*
X181825176Y-130409780D01*
X181825176Y-130409780D02*
X181825176Y-130639780D01*
X190775176Y-130409780D02*
X184875176Y-130409780D01*
X181825176Y-133489780D02*
X181825176Y-133959780D01*
X192775176Y-133209780D02*
X192775176Y-132409780D01*
X189184322Y-136299780D02*
G75*
G03*
X186890000Y-134459780I-2293456J-509332D01*
G01*
X192775170Y-132409780D02*
G75*
G03*
X190775176Y-130409780I-1999990J10D01*
G01*
X181825176Y-133959780D02*
G75*
G03*
X182325176Y-134459780I500001J1D01*
G01*
D11*
%TO.C,D17*%
X166597500Y-78230000D02*
X166597500Y-80150000D01*
X169282500Y-78230000D02*
X166597500Y-78230000D01*
X166597500Y-80150000D02*
X169282500Y-80150000D01*
%TO.C,C3*%
X156847000Y-75587836D02*
X156847000Y-75372164D01*
X156127000Y-75587836D02*
X156127000Y-75372164D01*
%TO.C,D7*%
X155019500Y-141124500D02*
X157019500Y-141124500D01*
X157019500Y-141124500D02*
X157019500Y-137224500D01*
X155019500Y-141124500D02*
X155019500Y-137224500D01*
%TO.C,C12*%
X153712500Y-83264836D02*
X153712500Y-83049164D01*
X152992500Y-83264836D02*
X152992500Y-83049164D01*
%TO.C,C18*%
X152967836Y-79370000D02*
X152752164Y-79370000D01*
X152967836Y-78650000D02*
X152752164Y-78650000D01*
%TO.C,D12*%
X174069500Y-160174500D02*
X176069500Y-160174500D01*
X176069500Y-160174500D02*
X176069500Y-156274500D01*
X174069500Y-160174500D02*
X174069500Y-156274500D01*
D10*
%TO.C,SW9*%
X144225176Y-153509780D02*
X148790000Y-153509780D01*
X143725176Y-152539780D02*
X143725176Y-153009780D01*
X154675176Y-155109780D02*
X154675176Y-155349780D01*
X154675176Y-152259780D02*
X154675176Y-151459780D01*
X145275176Y-149459780D02*
X143725176Y-149459780D01*
X143725176Y-149459780D02*
X143725176Y-149689780D01*
X152675176Y-149459780D02*
X146775176Y-149459780D01*
X143725176Y-153009780D02*
G75*
G03*
X144225176Y-153509780I500001J1D01*
G01*
X154675170Y-151459780D02*
G75*
G03*
X152675176Y-149459780I-1999990J10D01*
G01*
X151084322Y-155349780D02*
G75*
G03*
X148790000Y-153509780I-2293456J-509332D01*
G01*
D11*
%TO.C,U3*%
X148190000Y-77575000D02*
X150915000Y-77575000D01*
X148190000Y-72125000D02*
X150915000Y-72125000D01*
X145465000Y-72125000D02*
X145465000Y-72385000D01*
X150915000Y-77575000D02*
X150915000Y-77315000D01*
X148190000Y-77575000D02*
X145465000Y-77575000D01*
X145465000Y-77575000D02*
X145465000Y-77315000D01*
X145465000Y-72385000D02*
X143790000Y-72385000D01*
X150915000Y-72125000D02*
X150915000Y-72385000D01*
X148190000Y-72125000D02*
X145465000Y-72125000D01*
D12*
%TO.C,U4*%
X142689161Y-85901714D02*
X143689923Y-84900952D01*
X147040190Y-87969278D02*
X147040190Y-85632474D01*
X142319870Y-85145783D02*
X143214942Y-84250711D01*
X142689161Y-87700038D02*
X142689161Y-85901714D01*
X143590863Y-88601740D02*
X142689161Y-87700038D01*
X145765108Y-89351041D02*
X143214942Y-89351041D01*
X145765108Y-89351041D02*
X146660180Y-88455969D01*
X143689923Y-84900952D02*
X145389187Y-84900952D01*
X146290889Y-85802654D02*
X146290889Y-87801638D01*
X143214942Y-89351041D02*
X142319870Y-88455969D01*
X146290889Y-87801638D02*
X145490787Y-88601740D01*
X145765108Y-84250711D02*
X143214942Y-84250711D01*
X141939860Y-87969278D02*
X141939860Y-85632474D01*
X146660180Y-85145783D02*
X145765108Y-84250711D01*
X145389187Y-84900952D02*
X146290889Y-85802654D01*
X145490787Y-88601740D02*
X143590863Y-88601740D01*
D13*
X147770036Y-89350863D02*
G75*
G03*
X147770036Y-89350863I-29998J0D01*
G01*
D12*
X145765108Y-86800876D02*
G75*
G03*
X145765108Y-86800876I-1275083J0D01*
G01*
D11*
%TO.C,D18*%
X165900000Y-73190000D02*
X162000000Y-73190000D01*
X165900000Y-71190000D02*
X162000000Y-71190000D01*
X165900000Y-73190000D02*
X165900000Y-71190000D01*
D10*
%TO.C,SW6*%
X154675176Y-95109780D02*
X154675176Y-94309780D01*
X144225176Y-96359780D02*
X148790000Y-96359780D01*
X145275176Y-92309780D02*
X143725176Y-92309780D01*
X143725176Y-92309780D02*
X143725176Y-92539780D01*
X152675176Y-92309780D02*
X146775176Y-92309780D01*
X143725176Y-95389780D02*
X143725176Y-95859780D01*
X154675176Y-97959780D02*
X154675176Y-98199780D01*
X151084322Y-98199780D02*
G75*
G03*
X148790000Y-96359780I-2293456J-509332D01*
G01*
X154675170Y-94309780D02*
G75*
G03*
X152675176Y-92309780I-1999990J10D01*
G01*
X143725176Y-95859780D02*
G75*
G03*
X144225176Y-96359780I500001J1D01*
G01*
D11*
%TO.C,U2*%
X170730000Y-75337500D02*
X170730000Y-74687500D01*
X173850000Y-75337500D02*
X173850000Y-74687500D01*
X170730000Y-75337500D02*
X170730000Y-77012500D01*
X173850000Y-75337500D02*
X173850000Y-75987500D01*
%TO.C,C5*%
X162532164Y-76957000D02*
X162747836Y-76957000D01*
X162532164Y-76237000D02*
X162747836Y-76237000D01*
D10*
%TO.C,SW11*%
X173725176Y-117009780D02*
X173725176Y-117249780D01*
X173725176Y-114159780D02*
X173725176Y-113359780D01*
X162775176Y-114439780D02*
X162775176Y-114909780D01*
X162775176Y-111359780D02*
X162775176Y-111589780D01*
X164325176Y-111359780D02*
X162775176Y-111359780D01*
X163275176Y-115409780D02*
X167840000Y-115409780D01*
X171725176Y-111359780D02*
X165825176Y-111359780D01*
X170134322Y-117249780D02*
G75*
G03*
X167840000Y-115409780I-2293456J-509332D01*
G01*
X173725170Y-113359780D02*
G75*
G03*
X171725176Y-111359780I-1999990J10D01*
G01*
X162775176Y-114909780D02*
G75*
G03*
X163275176Y-115409780I500001J1D01*
G01*
%TO.C,SW13*%
X162775176Y-152539780D02*
X162775176Y-153009780D01*
X163275176Y-153509780D02*
X167840000Y-153509780D01*
X164325176Y-149459780D02*
X162775176Y-149459780D01*
X173725176Y-155109780D02*
X173725176Y-155349780D01*
X162775176Y-149459780D02*
X162775176Y-149689780D01*
X173725176Y-152259780D02*
X173725176Y-151459780D01*
X171725176Y-149459780D02*
X165825176Y-149459780D01*
X170134322Y-155349780D02*
G75*
G03*
X167840000Y-153509780I-2293456J-509332D01*
G01*
X173725170Y-151459780D02*
G75*
G03*
X171725176Y-149459780I-1999990J10D01*
G01*
X162775176Y-153009780D02*
G75*
G03*
X163275176Y-153509780I500001J1D01*
G01*
D11*
%TO.C,R6*%
X155560000Y-90563641D02*
X155560000Y-90256359D01*
X156320000Y-90563641D02*
X156320000Y-90256359D01*
%TO.C,D8*%
X157019500Y-160174500D02*
X157019500Y-156274500D01*
X155019500Y-160174500D02*
X157019500Y-160174500D01*
X155019500Y-160174500D02*
X155019500Y-156274500D01*
%TO.C,C7*%
X157930000Y-75587836D02*
X157930000Y-75372164D01*
X157210000Y-75587836D02*
X157210000Y-75372164D01*
D10*
%TO.C,SW3*%
X133625176Y-130409780D02*
X127725176Y-130409780D01*
X125175176Y-134459780D02*
X129740000Y-134459780D01*
X124675176Y-130409780D02*
X124675176Y-130639780D01*
X135625176Y-133209780D02*
X135625176Y-132409780D01*
X126225176Y-130409780D02*
X124675176Y-130409780D01*
X124675176Y-133489780D02*
X124675176Y-133959780D01*
X135625176Y-136059780D02*
X135625176Y-136299780D01*
X124675176Y-133959780D02*
G75*
G03*
X125175176Y-134459780I500001J1D01*
G01*
X135625170Y-132409780D02*
G75*
G03*
X133625176Y-130409780I-1999990J10D01*
G01*
X132034322Y-136299780D02*
G75*
G03*
X129740000Y-134459780I-2293456J-509332D01*
G01*
D14*
%TO.C,U1*%
X161615000Y-79177000D02*
X161615000Y-79657000D01*
X154615000Y-86177000D02*
X154615000Y-85697000D01*
X161615000Y-86177000D02*
X161615000Y-85697000D01*
X154615000Y-79177000D02*
X154615000Y-79657000D01*
X161615000Y-79177000D02*
X161135000Y-79177000D01*
X154615000Y-79177000D02*
X155095000Y-79177000D01*
X154615000Y-86177000D02*
X155095000Y-86177000D01*
X161615000Y-86177000D02*
X161135000Y-86177000D01*
D15*
X154415000Y-79577000D02*
G75*
G03*
X154415000Y-79577000I-100000J0D01*
G01*
D11*
%TO.C,D13*%
X193119500Y-103024500D02*
X193119500Y-99124500D01*
X195119500Y-103024500D02*
X195119500Y-99124500D01*
X193119500Y-103024500D02*
X195119500Y-103024500D01*
D10*
%TO.C,SW12*%
X173725176Y-136059780D02*
X173725176Y-136299780D01*
X173725176Y-133209780D02*
X173725176Y-132409780D01*
X162775176Y-130409780D02*
X162775176Y-130639780D01*
X171725176Y-130409780D02*
X165825176Y-130409780D01*
X164325176Y-130409780D02*
X162775176Y-130409780D01*
X162775176Y-133489780D02*
X162775176Y-133959780D01*
X163275176Y-134459780D02*
X167840000Y-134459780D01*
X162775176Y-133959780D02*
G75*
G03*
X163275176Y-134459780I500001J1D01*
G01*
X170134322Y-136299780D02*
G75*
G03*
X167840000Y-134459780I-2293456J-509332D01*
G01*
X173725170Y-132409780D02*
G75*
G03*
X171725176Y-130409780I-1999990J10D01*
G01*
%TO.C,SW7*%
X154675176Y-114159780D02*
X154675176Y-113359780D01*
X144225176Y-115409780D02*
X148790000Y-115409780D01*
X145275176Y-111359780D02*
X143725176Y-111359780D01*
X154675176Y-117009780D02*
X154675176Y-117249780D01*
X152675176Y-111359780D02*
X146775176Y-111359780D01*
X143725176Y-111359780D02*
X143725176Y-111589780D01*
X143725176Y-114439780D02*
X143725176Y-114909780D01*
X151084322Y-117249780D02*
G75*
G03*
X148790000Y-115409780I-2293456J-509332D01*
G01*
X154675170Y-113359780D02*
G75*
G03*
X152675176Y-111359780I-1999990J10D01*
G01*
X143725176Y-114909780D02*
G75*
G03*
X144225176Y-115409780I500001J1D01*
G01*
D12*
%TO.C,U5*%
X172275083Y-84249835D02*
X173170155Y-85144907D01*
X169999238Y-84999136D02*
X171899162Y-84999136D01*
X169724917Y-84249835D02*
X172275083Y-84249835D01*
X168449835Y-85631598D02*
X168449835Y-87968402D01*
X171899162Y-84999136D02*
X172800864Y-85900838D01*
X169199136Y-87798222D02*
X169199136Y-85799238D01*
X169724917Y-89350165D02*
X172275083Y-89350165D01*
X172800864Y-85900838D02*
X172800864Y-87699162D01*
X169724917Y-84249835D02*
X168829845Y-85144907D01*
X173170155Y-88455093D02*
X172275083Y-89350165D01*
X172800864Y-87699162D02*
X171800102Y-88699924D01*
X168829845Y-88455093D02*
X169724917Y-89350165D01*
X169199136Y-85799238D02*
X169999238Y-84999136D01*
X171800102Y-88699924D02*
X170100838Y-88699924D01*
X170100838Y-88699924D02*
X169199136Y-87798222D01*
X173550165Y-85631598D02*
X173550165Y-87968402D01*
X172275083Y-86800000D02*
G75*
G03*
X172275083Y-86800000I-1275083J0D01*
G01*
D13*
X167779985Y-84250013D02*
G75*
G03*
X167779985Y-84250013I-29998J0D01*
G01*
D11*
%TO.C,D5*%
X155019500Y-103024500D02*
X157019500Y-103024500D01*
X157019500Y-103024500D02*
X157019500Y-99124500D01*
X155019500Y-103024500D02*
X155019500Y-99124500D01*
D10*
%TO.C,SW18*%
X192775176Y-152259780D02*
X192775176Y-151459780D01*
X190775176Y-149459780D02*
X184875176Y-149459780D01*
X181825176Y-149459780D02*
X181825176Y-149689780D01*
X182325176Y-153509780D02*
X186890000Y-153509780D01*
X192775176Y-155109780D02*
X192775176Y-155349780D01*
X181825176Y-152539780D02*
X181825176Y-153009780D01*
X183375176Y-149459780D02*
X181825176Y-149459780D01*
X189184322Y-155349780D02*
G75*
G03*
X186890000Y-153509780I-2293456J-509332D01*
G01*
X192775170Y-151459780D02*
G75*
G03*
X190775176Y-149459780I-1999990J10D01*
G01*
X181825176Y-153009780D02*
G75*
G03*
X182325176Y-153509780I500001J1D01*
G01*
%TO.C,SW2*%
X125175176Y-115409780D02*
X129740000Y-115409780D01*
X133625176Y-111359780D02*
X127725176Y-111359780D01*
X126225176Y-111359780D02*
X124675176Y-111359780D01*
X124675176Y-111359780D02*
X124675176Y-111589780D01*
X135625176Y-114159780D02*
X135625176Y-113359780D01*
X135625176Y-117009780D02*
X135625176Y-117249780D01*
X124675176Y-114439780D02*
X124675176Y-114909780D01*
X135625170Y-113359780D02*
G75*
G03*
X133625176Y-111359780I-1999990J10D01*
G01*
X132034322Y-117249780D02*
G75*
G03*
X129740000Y-115409780I-2293456J-509332D01*
G01*
X124675176Y-114909780D02*
G75*
G03*
X125175176Y-115409780I500001J1D01*
G01*
D11*
%TO.C,D10*%
X174069500Y-122074500D02*
X176069500Y-122074500D01*
X174069500Y-122074500D02*
X174069500Y-118174500D01*
X176069500Y-122074500D02*
X176069500Y-118174500D01*
D10*
%TO.C,SW15*%
X181825176Y-95389780D02*
X181825176Y-95859780D01*
X192775176Y-97959780D02*
X192775176Y-98199780D01*
X190775176Y-92309780D02*
X184875176Y-92309780D01*
X181825176Y-92309780D02*
X181825176Y-92539780D01*
X183375176Y-92309780D02*
X181825176Y-92309780D01*
X192775176Y-95109780D02*
X192775176Y-94309780D01*
X182325176Y-96359780D02*
X186890000Y-96359780D01*
X189184322Y-98199780D02*
G75*
G03*
X186890000Y-96359780I-2293456J-509332D01*
G01*
X181825176Y-95859780D02*
G75*
G03*
X182325176Y-96359780I500001J1D01*
G01*
X192775170Y-94309780D02*
G75*
G03*
X190775176Y-92309780I-1999990J10D01*
G01*
%TO.C,SW4*%
X126225176Y-149459780D02*
X124675176Y-149459780D01*
X124675176Y-152539780D02*
X124675176Y-153009780D01*
X135625176Y-155109780D02*
X135625176Y-155349780D01*
X133625176Y-149459780D02*
X127725176Y-149459780D01*
X124675176Y-149459780D02*
X124675176Y-149689780D01*
X135625176Y-152259780D02*
X135625176Y-151459780D01*
X125175176Y-153509780D02*
X129740000Y-153509780D01*
X135625170Y-151459780D02*
G75*
G03*
X133625176Y-149459780I-1999990J10D01*
G01*
X132034322Y-155349780D02*
G75*
G03*
X129740000Y-153509780I-2293456J-509332D01*
G01*
X124675176Y-153009780D02*
G75*
G03*
X125175176Y-153509780I500001J1D01*
G01*
%TO.C,SW8*%
X143725176Y-133489780D02*
X143725176Y-133959780D01*
X154675176Y-133209780D02*
X154675176Y-132409780D01*
X154675176Y-136059780D02*
X154675176Y-136299780D01*
X143725176Y-130409780D02*
X143725176Y-130639780D01*
X144225176Y-134459780D02*
X148790000Y-134459780D01*
X145275176Y-130409780D02*
X143725176Y-130409780D01*
X152675176Y-130409780D02*
X146775176Y-130409780D01*
X143725176Y-133959780D02*
G75*
G03*
X144225176Y-134459780I500001J1D01*
G01*
X151084322Y-136299780D02*
G75*
G03*
X148790000Y-134459780I-2293456J-509332D01*
G01*
X154675170Y-132409780D02*
G75*
G03*
X152675176Y-130409780I-1999990J10D01*
G01*
D11*
%TO.C,D9*%
X174069500Y-103024500D02*
X176069500Y-103024500D01*
X174069500Y-103024500D02*
X174069500Y-99124500D01*
X176069500Y-103024500D02*
X176069500Y-99124500D01*
%TO.C,R2*%
X160240000Y-76513641D02*
X160240000Y-76206359D01*
X159480000Y-76513641D02*
X159480000Y-76206359D01*
%TO.C,C15*%
X155140000Y-91507836D02*
X155140000Y-91292164D01*
X154420000Y-91507836D02*
X154420000Y-91292164D01*
%TO.C,R8*%
X153856359Y-70890000D02*
X154163641Y-70890000D01*
X153856359Y-71650000D02*
X154163641Y-71650000D01*
%TO.C,C16*%
X153862164Y-72610000D02*
X154077836Y-72610000D01*
X153862164Y-73330000D02*
X154077836Y-73330000D01*
%TO.C,C2*%
X174240000Y-75907836D02*
X174240000Y-75692164D01*
X174960000Y-75907836D02*
X174960000Y-75692164D01*
%TO.C,C1*%
X174990000Y-71767836D02*
X174990000Y-71552164D01*
X174270000Y-71767836D02*
X174270000Y-71552164D01*
%TO.C,C10*%
X163150664Y-83799000D02*
X163366336Y-83799000D01*
X163150664Y-83079000D02*
X163366336Y-83079000D01*
%TO.C,C13*%
X152977836Y-79730000D02*
X152762164Y-79730000D01*
X152977836Y-80450000D02*
X152762164Y-80450000D01*
%TO.C,F1*%
X167951422Y-72840000D02*
X168468578Y-72840000D01*
X167951422Y-71420000D02*
X168468578Y-71420000D01*
D10*
%TO.C,SW16*%
X183375176Y-111359780D02*
X181825176Y-111359780D01*
X181825176Y-111359780D02*
X181825176Y-111589780D01*
X190775176Y-111359780D02*
X184875176Y-111359780D01*
X192775176Y-117009780D02*
X192775176Y-117249780D01*
X181825176Y-114439780D02*
X181825176Y-114909780D01*
X182325176Y-115409780D02*
X186890000Y-115409780D01*
X192775176Y-114159780D02*
X192775176Y-113359780D01*
X189184322Y-117249780D02*
G75*
G03*
X186890000Y-115409780I-2293456J-509332D01*
G01*
X192775170Y-113359780D02*
G75*
G03*
X190775176Y-111359780I-1999990J10D01*
G01*
X181825176Y-114909780D02*
G75*
G03*
X182325176Y-115409780I500001J1D01*
G01*
D11*
%TO.C,R1*%
X141570000Y-82893641D02*
X141570000Y-82586359D01*
X140810000Y-82893641D02*
X140810000Y-82586359D01*
%TO.C,J1*%
X136490000Y-75650000D02*
X136490000Y-83330000D01*
X136490000Y-83330000D02*
X139150000Y-83330000D01*
X139150000Y-75650000D02*
X139150000Y-83330000D01*
X136490000Y-73050000D02*
X137820000Y-73050000D01*
X136490000Y-74380000D02*
X136490000Y-73050000D01*
X136490000Y-75650000D02*
X139150000Y-75650000D01*
%TO.C,D2*%
X137969500Y-122074500D02*
X137969500Y-118174500D01*
X135969500Y-122074500D02*
X137969500Y-122074500D01*
X135969500Y-122074500D02*
X135969500Y-118174500D01*
%TO.C,C4*%
X158952500Y-88674164D02*
X158952500Y-88889836D01*
X159672500Y-88674164D02*
X159672500Y-88889836D01*
%TO.C,D3*%
X135969500Y-141124500D02*
X137969500Y-141124500D01*
X135969500Y-141124500D02*
X135969500Y-137224500D01*
X137969500Y-141124500D02*
X137969500Y-137224500D01*
%TD*%
M02*
